<svg width="250" height="44" viewBox="0 0 250 44" fill="none" xmlns="http://www.w3.org/2000/svg">
<path d="M24.139 0.123927L14.6238 6.66728C14.2483 6.92554 14.1957 7.47366 14.5148 7.80288L24.4173 18.0175C24.5515 18.1559 24.6268 18.3436 24.6268 18.5392V31.6112C24.6268 32.2005 25.2635 32.552 25.7389 32.2251L35.0373 25.8307C35.2363 25.6939 35.3558 25.4635 35.3558 25.2168V11.1612C35.3558 10.9655 35.2805 10.7778 35.1463 10.6394L25.0415 0.216112C24.8004 -0.0325771 24.4226 -0.0711607 24.139 0.123927Z" fill="#1529C1"/>
<path d="M9.83366 11.1911L0.318542 17.7344C-0.0570165 17.9927 -0.109633 18.5408 0.209531 18.87L10.1121 29.0847C10.2462 29.223 10.3216 29.4107 10.3216 29.6064V42.6783C10.3216 43.2676 10.9582 43.6191 11.4336 43.2922L20.732 36.8979C20.931 36.761 21.0505 36.5307 21.0505 36.284V22.2283C21.0505 22.0326 20.9752 21.8449 20.841 21.7066L10.7362 11.2832C10.4951 11.0346 10.1174 10.996 9.83366 11.1911Z" fill="#1529C1"/>
<path d="M55.6642 32.2269V16.1341H63.0132V10.7056H42.4298V16.1341H49.8099V32.2269H55.6642Z" fill="#020412"/>
<path d="M69.1915 32.2269V23.8754C69.1915 21.7875 69.8455 21.1129 72.5546 21.1129C75.2327 21.1129 76.0734 21.8196 76.0734 24.0681V32.2269H81.9277V22.0444C81.9277 18.4469 79.9348 15.7165 75.762 15.7165C71.745 15.7165 70.0012 18.222 69.5029 20.9523L69.1915 22.5905V10.7056H63.3373V32.2269H69.1915Z" fill="#020412"/>
<path d="M91.3419 32.5481C96.6357 32.5481 99.9677 30.0105 99.9677 26.4129V26.0275H94.1134V26.3808C94.1134 27.3445 93.4906 27.762 91.1239 27.762C88.6328 27.762 87.792 27.216 87.6986 25.2566H99.9988C100.061 24.6784 100.092 24.2608 100.092 23.7148C100.092 18.5111 96.6357 15.7165 91.2174 15.7165C85.9859 15.7165 82.2802 18.8644 82.2802 24.1323C82.2802 30.2033 86.017 32.5481 91.3419 32.5481ZM91.0928 20.342C93.2726 20.342 94.2068 20.8238 94.4248 22.2051H87.792C88.0411 20.8238 88.9442 20.342 91.0928 20.342Z" fill="#020412"/>
<path d="M111.468 32.2269C118.35 32.2269 122.709 28.276 122.709 21.4663C122.709 14.6565 118.35 10.7056 111.468 10.7056H100.911V32.2269H111.468ZM111.468 16.1341C115.173 16.1341 116.45 16.6159 116.45 21.4663C116.45 26.3166 115.173 26.7984 111.468 26.7984H106.766V16.1341H111.468Z" fill="#020412"/>
<path d="M126.625 37.6875C131.202 37.6875 133.6 36.6918 135.282 32.8693L142.271 16.0378H136.185L132.822 26.1238L128.587 16.0378H121.923L129.427 32.0342C129.178 32.1627 128.805 32.2269 128.337 32.2269H123.791V37.6875H126.625Z" fill="#020412"/>
<path d="M148.125 32.2269V23.8754C148.125 21.7875 148.748 21.1129 151.332 21.1129C153.886 21.1129 154.695 21.8196 154.695 24.0681V32.2269H160.55V21.8517C160.55 18.3505 158.557 15.7165 154.322 15.7165C150.118 15.7165 148.405 18.2541 148.063 20.9523L147.838 22.5905L147.751 16.0378H142.271V32.2269H148.125Z" fill="#020412"/>
<path d="M166.266 32.5481C169.66 32.5481 172.159 30.4924 172.75 28.2118L172.494 32.2269H177.975V23.0081C177.975 18.479 175.328 15.7165 169.847 15.7165C164.522 15.7165 161.035 18.479 161.035 22.7832V22.8475H166.889V22.719C166.889 21.3699 167.481 20.9844 169.411 20.9844C171.498 20.9844 172.183 21.2414 172.183 22.8796V23.2008L165.799 23.8432C162.249 24.1966 160.723 25.8348 160.723 28.1154C160.723 30.8778 162.716 32.5481 166.266 32.5481ZM166.609 27.7299C166.609 27.3766 166.827 27.1839 167.356 27.1196L172.152 26.5414C171.996 27.9869 170.844 28.3402 168.01 28.3402C167.107 28.3402 166.609 28.2439 166.609 27.7299Z" fill="#020412"/>
<path d="M184.475 32.2269V23.8754C184.475 21.7875 184.973 21.1129 187.371 21.1129C189.799 21.1129 190.422 21.8196 190.422 24.0681V32.2269H196.277V23.8754C196.277 21.7875 196.775 21.1129 199.173 21.1129C201.601 21.1129 202.224 21.8196 202.224 24.0681V32.2269H208.079V21.8517C208.079 18.3505 206.179 15.7165 202.162 15.7165C198.083 15.7165 196.588 18.2541 196.245 20.9523L196.105 22.5905C195.794 19.6675 193.848 15.7165 190.142 15.7165C186.187 15.7165 184.755 18.2541 184.412 20.9523L184.101 22.5905V16.0378H178.62V32.2269H184.475Z" fill="#020412"/>
<path d="M214.585 14.5602V10.7056H208.731V14.5602H214.585ZM214.585 32.2269V16.0378H208.731V32.2269H214.585Z" fill="#020412"/>
<path d="M224.178 32.5481C229.534 32.5481 232.959 29.6893 232.959 25.3851V24.839H227.136V25.1281C227.136 26.7984 225.953 27.1196 224.053 27.1196C221.905 27.1196 220.877 26.6378 220.877 24.1323C220.877 21.5947 221.905 21.1129 224.053 21.1129C225.953 21.1129 227.136 21.4663 227.136 23.1366V23.3935H232.959V22.8796C232.959 18.5432 229.534 15.7165 224.178 15.7165C218.604 15.7165 215.054 18.8644 215.054 24.1323C215.054 29.3681 218.604 32.5481 224.178 32.5481Z" fill="#020412"/>
<path d="M241.873 32.5481C247.073 32.5481 250 30.3639 250 27.3445C250 24.6141 248.536 23.0402 243.959 22.5263L240.845 22.1729C239.008 21.9802 238.759 21.7554 238.759 21.3057C238.759 20.6954 239.008 20.4384 240.907 20.4384C243.274 20.4384 243.585 20.8238 243.585 21.659V21.8517H249.439V21.7232C249.439 17.7402 246.543 15.7165 241.094 15.7165C235.209 15.7165 232.998 18.1899 232.998 21.0487C232.998 23.779 234.742 25.3529 237.98 25.7063L242.526 26.2202C243.99 26.3808 244.239 26.5093 244.239 27.0232C244.239 27.5693 243.928 27.7942 241.904 27.7942C239.786 27.7942 239.226 27.6978 239.226 26.7984V26.4772H233.371V26.6057C233.371 30.3317 236.33 32.5481 241.873 32.5481Z" fill="#020412"/>
</svg>
