<svg width="554" height="400" viewBox="0 0 554 400" fill="none" xmlns="http://www.w3.org/2000/svg">
<g clip-path="url(#clip0_4401_5458)">
<path d="M552.936 396.932H0.800197C0.587972 396.932 0.384438 396.848 0.234372 396.698C0.0843056 396.548 0 396.344 0 396.132C0 395.92 0.0843056 395.716 0.234372 395.566C0.384438 395.416 0.587972 395.332 0.800197 395.332H552.936C553.149 395.332 553.352 395.416 553.502 395.566C553.652 395.716 553.736 395.92 553.736 396.132C553.736 396.344 553.652 396.548 553.502 396.698C553.352 396.848 553.149 396.932 552.936 396.932Z" fill="#CCCCCC"/>
<path d="M498.286 257.377H173.406C172.027 257.377 170.704 257.925 169.729 258.9C168.753 259.875 168.205 261.198 168.205 262.578C168.205 263.957 168.753 265.28 169.729 266.256C170.704 267.231 172.027 267.779 173.406 267.779H182.609V392.21C182.609 393.589 183.157 394.912 184.132 395.888C185.107 396.863 186.43 397.411 187.81 397.411C189.189 397.411 190.512 396.863 191.488 395.888C192.463 394.912 193.011 393.589 193.011 392.21L193.09 267.779H477.881V392.21C477.881 393.589 478.429 394.912 479.405 395.888C480.38 396.863 481.703 397.411 483.083 397.411C484.462 397.411 485.785 396.863 486.761 395.888C487.736 394.912 488.284 393.589 488.284 392.21V270.522L489.797 267.779H498.286C499.666 267.779 500.989 267.231 501.964 266.256C502.94 265.28 503.488 263.957 503.488 262.578C503.488 261.198 502.94 259.875 501.964 258.9C500.989 257.925 499.666 257.377 498.286 257.377V257.377Z" fill="#CCCCCC"/>
<path d="M353.522 260.099H255.113C253.207 260.097 251.38 259.339 250.033 257.991C248.686 256.644 247.928 254.817 247.926 252.911V198.731C247.928 196.825 248.686 194.998 250.033 193.651C251.38 192.304 253.207 191.546 255.113 191.544H353.522C355.428 191.546 357.255 192.304 358.602 193.651C359.95 194.998 360.708 196.825 360.71 198.731V252.911C360.708 254.817 359.95 256.644 358.602 257.991C357.255 259.339 355.428 260.097 353.522 260.099V260.099Z" fill="#3F3D56"/>
<path d="M353.522 197.075H255.113C254.674 197.076 254.254 197.251 253.943 197.561C253.633 197.872 253.458 198.292 253.457 198.731V252.913C253.458 253.352 253.633 253.773 253.943 254.083C254.254 254.393 254.674 254.568 255.113 254.569H353.522C353.961 254.568 354.382 254.393 354.692 254.083C355.003 253.773 355.177 253.352 355.178 252.913V198.731C355.177 198.292 355.003 197.872 354.692 197.561C354.382 197.251 353.961 197.076 353.522 197.075V197.075Z" fill="white"/>
<path d="M312.711 235.435C312.711 235.435 300.93 232.72 294.45 237.697C287.971 242.674 302.697 253.985 302.697 253.985L312.711 235.435Z" fill="#2F2E41"/>
<path d="M304.895 230.306C311.032 230.306 316.007 225.331 316.007 219.193C316.007 213.056 311.032 208.081 304.895 208.081C298.757 208.081 293.782 213.056 293.782 219.193C293.782 225.331 298.757 230.306 304.895 230.306Z" fill="#A0616A"/>
<path d="M296.302 203.594C297.043 202.337 298.117 201.308 299.406 200.622C300.694 199.937 302.147 199.62 303.605 199.709C305.129 199.9 306.616 200.316 308.018 200.944L315.282 203.778C317.162 204.511 319.221 205.409 320.037 207.255C320.794 208.968 320.229 210.946 319.657 212.729L316.939 221.206C316.638 219.287 316.122 217.409 315.399 215.606C314.665 213.792 313.338 212.279 311.635 211.314C309.748 210.346 307.524 210.366 305.405 210.468C302.405 210.612 299.143 210.994 297.012 213.11C295.88 214.312 295.113 215.81 294.8 217.431C294.491 219.043 294.336 220.68 294.336 222.321C293.105 220.206 292.069 217.985 291.239 215.683C290.557 213.969 290.168 212.153 290.089 210.31C290.018 208.451 290.634 206.632 291.821 205.199C292.424 204.499 293.209 203.981 294.09 203.704C294.971 203.427 295.912 203.401 296.807 203.63L296.302 203.594Z" fill="#2F2E41"/>
<path d="M331.428 245.071C331.324 244.695 331.111 244.359 330.816 244.105C330.521 243.85 330.158 243.688 329.772 243.638C329.746 243.621 329.719 243.605 329.692 243.59L313.102 234.294C312.629 234.028 312.071 233.956 311.545 234.091C311.019 234.226 310.566 234.559 310.279 235.02L305.742 242.366L298.908 235.532L298.8 235.424C298.449 235.073 297.986 234.857 297.492 234.814C296.998 234.771 296.504 234.903 296.098 235.188L282.464 244.735C282.44 244.735 282.416 244.743 282.392 244.743C281.74 244.852 281.144 245.18 280.703 245.673C280.262 246.166 280.002 246.795 279.967 247.455L279.615 254.569H334.061L331.428 245.071Z" fill="#5F6FEE"/>
<path d="M361.815 253.464H351.311C351.311 253.171 351.195 252.89 350.987 252.682C350.78 252.475 350.499 252.359 350.205 252.359H346.888C346.595 252.359 346.314 252.475 346.106 252.682C345.899 252.89 345.782 253.171 345.782 253.464H342.465C342.465 253.171 342.349 252.89 342.141 252.682C341.934 252.475 341.653 252.359 341.36 252.359H338.042C337.749 252.359 337.468 252.475 337.26 252.682C337.053 252.89 336.937 253.171 336.937 253.464H333.619C333.619 253.171 333.503 252.89 333.296 252.682C333.088 252.475 332.807 252.359 332.514 252.359H329.197C328.903 252.359 328.622 252.475 328.415 252.682C328.207 252.89 328.091 253.171 328.091 253.464H324.774C324.774 253.171 324.657 252.89 324.45 252.682C324.242 252.475 323.961 252.359 323.668 252.359H320.351C320.057 252.359 319.776 252.475 319.569 252.682C319.361 252.89 319.245 253.171 319.245 253.464H315.928C315.928 253.171 315.811 252.89 315.604 252.682C315.397 252.475 315.115 252.359 314.822 252.359H311.505C311.212 252.359 310.93 252.475 310.723 252.682C310.516 252.89 310.399 253.171 310.399 253.464H307.082C307.082 253.171 306.965 252.89 306.758 252.682C306.551 252.475 306.269 252.359 305.976 252.359H302.659C302.366 252.359 302.085 252.475 301.877 252.682C301.67 252.89 301.553 253.171 301.553 253.464H298.236C298.236 253.171 298.12 252.89 297.912 252.682C297.705 252.475 297.424 252.359 297.13 252.359H293.813C293.52 252.359 293.239 252.475 293.031 252.682C292.824 252.89 292.708 253.171 292.708 253.464H289.39C289.39 253.171 289.274 252.89 289.067 252.682C288.859 252.475 288.578 252.359 288.285 252.359H284.967C284.674 252.359 284.393 252.475 284.186 252.682C283.978 252.89 283.862 253.171 283.862 253.464H280.545C280.545 253.171 280.428 252.89 280.221 252.682C280.013 252.475 279.732 252.359 279.439 252.359H276.122C275.828 252.359 275.547 252.475 275.34 252.682C275.132 252.89 275.016 253.171 275.016 253.464H271.699C271.699 253.171 271.582 252.89 271.375 252.682C271.167 252.475 270.886 252.359 270.593 252.359H267.276C266.983 252.359 266.701 252.475 266.494 252.682C266.287 252.89 266.17 253.171 266.17 253.464H262.853C262.853 253.171 262.736 252.89 262.529 252.682C262.322 252.475 262.04 252.359 261.747 252.359H258.43C258.137 252.359 257.855 252.475 257.648 252.682C257.441 252.89 257.324 253.171 257.324 253.464H246.82C245.941 253.466 245.099 253.816 244.478 254.438C243.857 255.06 243.508 255.903 243.508 256.781C243.508 257.66 243.857 258.503 244.478 259.125C245.099 259.747 245.941 260.097 246.82 260.099H361.815C362.695 260.099 363.539 259.749 364.161 259.127C364.783 258.505 365.133 257.661 365.133 256.781C365.133 255.902 364.783 255.058 364.161 254.436C363.539 253.814 362.695 253.464 361.815 253.464V253.464Z" fill="#3F3D56"/>
<path d="M229.72 234.2V256.226H174.536C173.058 256.278 171.584 256.031 170.203 255.501C168.822 254.971 167.562 254.168 166.498 253.14C165.434 252.112 164.587 250.881 164.009 249.519C163.431 248.157 163.134 246.693 163.134 245.213C163.134 243.734 163.431 242.27 164.009 240.908C164.587 239.546 165.434 238.315 166.498 237.287C167.562 236.259 168.822 235.456 170.203 234.926C171.584 234.396 173.058 234.149 174.536 234.2H229.72Z" fill="#F2F2F2"/>
<path d="M231.075 256.057C231.075 256.282 230.986 256.497 230.827 256.656C230.668 256.815 230.453 256.904 230.228 256.904H173.554C170.475 256.904 167.523 255.681 165.347 253.505C163.17 251.328 161.948 248.376 161.948 245.298C161.948 242.22 163.17 239.268 165.347 237.091C167.523 234.915 170.475 233.692 173.554 233.692H230.228C230.453 233.692 230.668 233.781 230.827 233.94C230.986 234.099 231.075 234.315 231.075 234.539C231.075 234.764 230.986 234.979 230.827 235.138C230.668 235.297 230.453 235.386 230.228 235.386H173.554C170.926 235.389 168.408 236.434 166.551 238.293C164.694 240.151 163.651 242.671 163.651 245.298C163.651 247.925 164.694 250.445 166.551 252.304C168.408 254.162 170.926 255.207 173.554 255.21H230.228C230.453 255.21 230.668 255.299 230.827 255.458C230.986 255.617 231.075 255.832 231.075 256.057V256.057Z" fill="#5F6FEE"/>
<path d="M229.72 239.283H170.419C170.397 239.283 170.375 239.279 170.354 239.271C170.333 239.262 170.314 239.25 170.299 239.234C170.283 239.218 170.27 239.2 170.262 239.179C170.253 239.158 170.249 239.136 170.249 239.114C170.249 239.092 170.253 239.069 170.262 239.049C170.27 239.028 170.283 239.009 170.299 238.994C170.314 238.978 170.333 238.965 170.354 238.957C170.375 238.949 170.397 238.944 170.419 238.944H229.72C229.765 238.945 229.807 238.963 229.839 238.994C229.871 239.026 229.888 239.069 229.888 239.114C229.888 239.159 229.871 239.202 229.839 239.233C229.807 239.265 229.765 239.283 229.72 239.283V239.283Z" fill="#CCCCCC"/>
<path d="M229.72 243.35H170.419C170.397 243.35 170.375 243.346 170.354 243.337C170.333 243.329 170.314 243.316 170.299 243.301C170.283 243.285 170.27 243.266 170.262 243.245C170.253 243.225 170.249 243.203 170.249 243.18C170.249 243.158 170.253 243.136 170.262 243.115C170.27 243.095 170.283 243.076 170.299 243.06C170.314 243.044 170.333 243.032 170.354 243.023C170.375 243.015 170.397 243.011 170.419 243.011H229.72C229.765 243.011 229.807 243.029 229.839 243.061C229.871 243.093 229.888 243.136 229.888 243.18C229.888 243.225 229.871 243.268 229.839 243.3C229.807 243.331 229.765 243.349 229.72 243.35V243.35Z" fill="#CCCCCC"/>
<path d="M229.72 247.416H170.419C170.397 247.416 170.375 247.412 170.354 247.403C170.333 247.395 170.314 247.383 170.299 247.367C170.283 247.351 170.27 247.332 170.262 247.312C170.253 247.291 170.249 247.269 170.249 247.247C170.249 247.224 170.253 247.202 170.262 247.181C170.27 247.161 170.283 247.142 170.299 247.126C170.314 247.111 170.333 247.098 170.354 247.09C170.375 247.081 170.397 247.077 170.419 247.077H229.72C229.765 247.077 229.807 247.095 229.839 247.127C229.871 247.159 229.888 247.202 229.888 247.247C229.888 247.291 229.871 247.334 229.839 247.366C229.807 247.398 229.765 247.416 229.72 247.416V247.416Z" fill="#CCCCCC"/>
<path d="M229.72 251.482H170.419C170.397 251.482 170.375 251.478 170.354 251.47C170.333 251.461 170.314 251.449 170.299 251.433C170.283 251.417 170.27 251.399 170.262 251.378C170.253 251.357 170.249 251.335 170.249 251.313C170.249 251.291 170.253 251.268 170.262 251.248C170.27 251.227 170.283 251.208 170.299 251.193C170.314 251.177 170.333 251.164 170.354 251.156C170.375 251.148 170.397 251.143 170.419 251.143H229.72C229.765 251.144 229.807 251.162 229.839 251.193C229.871 251.225 229.888 251.268 229.888 251.313C229.888 251.358 229.871 251.401 229.839 251.432C229.807 251.464 229.765 251.482 229.72 251.482Z" fill="#CCCCCC"/>
<path d="M219.317 210.995V233.021H164.134C162.655 233.072 161.182 232.825 159.801 232.295C158.42 231.765 157.159 230.962 156.095 229.934C155.031 228.906 154.185 227.675 153.607 226.313C153.029 224.951 152.731 223.487 152.731 222.008C152.731 220.528 153.029 219.064 153.607 217.702C154.185 216.34 155.031 215.109 156.095 214.081C157.159 213.054 158.42 212.251 159.801 211.72C161.182 211.19 162.655 210.943 164.134 210.995H219.317Z" fill="#F2F2F2"/>
<path d="M220.673 232.851C220.673 233.076 220.583 233.291 220.425 233.45C220.266 233.609 220.05 233.698 219.826 233.698H163.151C161.627 233.698 160.118 233.398 158.71 232.815C157.301 232.232 156.022 231.377 154.944 230.299C153.867 229.221 153.012 227.942 152.428 226.534C151.845 225.126 151.545 223.616 151.545 222.092C151.545 220.568 151.845 219.059 152.428 217.651C153.012 216.243 153.867 214.963 154.944 213.886C156.022 212.808 157.301 211.953 158.71 211.37C160.118 210.787 161.627 210.486 163.151 210.486H219.826C220.05 210.486 220.266 210.576 220.425 210.734C220.583 210.893 220.673 211.109 220.673 211.333C220.673 211.558 220.583 211.774 220.425 211.933C220.266 212.091 220.05 212.181 219.826 212.181H163.151C160.524 212.183 158.005 213.228 156.148 215.087C154.291 216.945 153.248 219.465 153.248 222.092C153.248 224.72 154.291 227.239 156.148 229.098C158.005 230.956 160.524 232.002 163.151 232.004H219.826C220.05 232.004 220.266 232.093 220.424 232.252C220.583 232.411 220.673 232.627 220.673 232.851V232.851Z" fill="#3F3D56"/>
<path d="M219.317 216.078H160.017C159.994 216.078 159.972 216.073 159.951 216.065C159.931 216.057 159.912 216.044 159.896 216.028C159.88 216.013 159.868 215.994 159.859 215.973C159.85 215.953 159.846 215.93 159.846 215.908C159.846 215.886 159.85 215.864 159.859 215.843C159.868 215.822 159.88 215.804 159.896 215.788C159.912 215.772 159.931 215.76 159.951 215.751C159.972 215.743 159.994 215.738 160.017 215.739H219.317C219.362 215.739 219.405 215.757 219.436 215.789C219.468 215.82 219.486 215.863 219.486 215.908C219.486 215.953 219.468 215.996 219.436 216.027C219.405 216.059 219.362 216.077 219.317 216.078V216.078Z" fill="#CCCCCC"/>
<path d="M219.317 220.144H160.017C159.994 220.144 159.972 220.14 159.951 220.131C159.931 220.123 159.912 220.11 159.896 220.095C159.88 220.079 159.868 220.06 159.859 220.04C159.85 220.019 159.846 219.997 159.846 219.974C159.846 219.952 159.85 219.93 159.859 219.909C159.868 219.889 159.88 219.87 159.896 219.854C159.912 219.839 159.931 219.826 159.951 219.818C159.972 219.809 159.994 219.805 160.017 219.805H219.317C219.362 219.805 219.405 219.823 219.436 219.855C219.468 219.887 219.486 219.93 219.486 219.974C219.486 220.019 219.468 220.062 219.436 220.094C219.405 220.126 219.362 220.144 219.317 220.144V220.144Z" fill="#CCCCCC"/>
<path d="M219.317 224.21H160.017C159.994 224.21 159.972 224.206 159.951 224.198C159.931 224.189 159.912 224.177 159.896 224.161C159.88 224.145 159.868 224.127 159.859 224.106C159.85 224.085 159.846 224.063 159.846 224.041C159.846 224.019 159.85 223.996 159.859 223.976C159.868 223.955 159.88 223.936 159.896 223.921C159.912 223.905 159.931 223.892 159.951 223.884C159.972 223.876 159.994 223.871 160.017 223.871H219.317C219.362 223.872 219.405 223.89 219.436 223.922C219.468 223.953 219.486 223.996 219.486 224.041C219.486 224.086 219.468 224.129 219.436 224.16C219.405 224.192 219.362 224.21 219.317 224.21V224.21Z" fill="#CCCCCC"/>
<path d="M219.317 228.277H160.017C159.994 228.277 159.972 228.272 159.951 228.264C159.931 228.256 159.912 228.243 159.896 228.227C159.88 228.212 159.868 228.193 159.859 228.172C159.85 228.152 159.846 228.13 159.846 228.107C159.846 228.085 159.85 228.063 159.859 228.042C159.868 228.021 159.88 228.003 159.896 227.987C159.912 227.971 159.931 227.959 159.951 227.95C159.972 227.942 159.994 227.938 160.017 227.938H219.317C219.362 227.938 219.405 227.956 219.436 227.988C219.468 228.02 219.486 228.062 219.486 228.107C219.486 228.152 219.468 228.195 219.436 228.227C219.405 228.258 219.362 228.276 219.317 228.277Z" fill="#CCCCCC"/>
<path d="M283.512 334.517V315.312C283.512 314.463 283.175 313.649 282.575 313.049C281.975 312.449 281.161 312.111 280.312 312.111H207.494C206.645 312.111 205.831 312.449 205.23 313.049C204.63 313.649 204.293 314.463 204.293 315.312V334.517H283.512Z" fill="#CCCCCC"/>
<path d="M283.513 341.719H204.293V366.525H283.513V341.719Z" fill="#CCCCCC"/>
<path d="M204.293 373.727V392.931C204.293 393.78 204.63 394.594 205.23 395.195C205.831 395.795 206.645 396.132 207.494 396.132H280.312C281.161 396.132 281.975 395.795 282.575 395.195C283.175 394.594 283.512 393.78 283.512 392.931V373.727H204.293Z" fill="#CCCCCC"/>
<path d="M243.503 326.515C244.828 326.515 245.903 325.44 245.903 324.114C245.903 322.789 244.828 321.714 243.503 321.714C242.177 321.714 241.102 322.789 241.102 324.114C241.102 325.44 242.177 326.515 243.503 326.515Z" fill="white"/>
<path d="M243.503 358.523C244.828 358.523 245.903 357.448 245.903 356.122C245.903 354.796 244.828 353.722 243.503 353.722C242.177 353.722 241.102 354.796 241.102 356.122C241.102 357.448 242.177 358.523 243.503 358.523Z" fill="white"/>
<path d="M243.631 389.853C244.957 389.853 246.032 388.778 246.032 387.452C246.032 386.127 244.957 385.052 243.631 385.052C242.305 385.052 241.231 386.127 241.231 387.452C241.231 388.778 242.305 389.853 243.631 389.853Z" fill="white"/>
<path d="M274.531 290.214V312.24H219.347C217.869 312.292 216.395 312.045 215.014 311.515C213.633 310.984 212.373 310.181 211.309 309.154C210.245 308.126 209.398 306.894 208.82 305.533C208.242 304.171 207.945 302.707 207.945 301.227C207.945 299.748 208.242 298.284 208.82 296.922C209.398 295.56 210.245 294.329 211.309 293.301C212.373 292.273 213.633 291.47 215.014 290.94C216.395 290.41 217.869 290.163 219.347 290.214H274.531Z" fill="#F2F2F2"/>
<path d="M275.886 312.071C275.886 312.295 275.797 312.511 275.638 312.67C275.479 312.829 275.264 312.918 275.039 312.918H218.365C216.84 312.919 215.329 312.62 213.92 312.037C212.511 311.455 211.23 310.6 210.152 309.522C209.073 308.444 208.217 307.164 207.633 305.756C207.05 304.347 206.749 302.837 206.749 301.312C206.749 299.787 207.05 298.277 207.633 296.868C208.217 295.46 209.073 294.18 210.152 293.102C211.23 292.024 212.511 291.169 213.92 290.587C215.329 290.004 216.84 289.705 218.365 289.706H275.039C275.264 289.706 275.479 289.795 275.638 289.954C275.797 290.113 275.886 290.328 275.886 290.553C275.886 290.778 275.797 290.993 275.638 291.152C275.479 291.311 275.264 291.4 275.039 291.4H218.365C215.737 291.403 213.219 292.448 211.362 294.306C209.505 296.165 208.462 298.685 208.462 301.312C208.462 303.939 209.505 306.459 211.362 308.317C213.219 310.176 215.737 311.221 218.365 311.224H275.039C275.264 311.224 275.479 311.313 275.638 311.472C275.797 311.631 275.886 311.846 275.886 312.071V312.071Z" fill="#3F3D56"/>
<path d="M274.531 295.297H215.23C215.208 295.297 215.186 295.293 215.165 295.285C215.144 295.276 215.125 295.264 215.11 295.248C215.094 295.232 215.081 295.213 215.073 295.193C215.064 295.172 215.06 295.15 215.06 295.128C215.06 295.105 215.064 295.083 215.073 295.063C215.081 295.042 215.094 295.023 215.11 295.007C215.125 294.992 215.144 294.979 215.165 294.971C215.186 294.962 215.208 294.958 215.23 294.958H274.531C274.576 294.959 274.618 294.977 274.65 295.008C274.682 295.04 274.699 295.083 274.699 295.128C274.699 295.172 274.682 295.215 274.65 295.247C274.618 295.279 274.576 295.297 274.531 295.297V295.297Z" fill="#CCCCCC"/>
<path d="M274.531 299.364H215.23C215.208 299.364 215.186 299.359 215.165 299.351C215.144 299.343 215.125 299.33 215.11 299.314C215.094 299.299 215.081 299.28 215.073 299.259C215.064 299.239 215.06 299.216 215.06 299.194C215.06 299.172 215.064 299.15 215.073 299.129C215.081 299.108 215.094 299.09 215.11 299.074C215.125 299.058 215.144 299.046 215.165 299.037C215.186 299.029 215.208 299.025 215.23 299.025H274.531C274.576 299.025 274.618 299.043 274.65 299.075C274.682 299.106 274.699 299.149 274.699 299.194C274.699 299.239 274.682 299.282 274.65 299.313C274.618 299.345 274.576 299.363 274.531 299.364V299.364Z" fill="#CCCCCC"/>
<path d="M274.531 303.43H215.23C215.208 303.43 215.186 303.426 215.165 303.417C215.144 303.409 215.125 303.396 215.11 303.381C215.094 303.365 215.081 303.346 215.073 303.325C215.064 303.305 215.06 303.283 215.06 303.26C215.06 303.238 215.064 303.216 215.073 303.195C215.081 303.175 215.094 303.156 215.11 303.14C215.125 303.124 215.144 303.112 215.165 303.103C215.186 303.095 215.208 303.091 215.23 303.091H274.531C274.576 303.091 274.618 303.109 274.65 303.141C274.682 303.173 274.699 303.216 274.699 303.26C274.699 303.305 274.682 303.348 274.65 303.38C274.618 303.412 274.576 303.429 274.531 303.43V303.43Z" fill="#CCCCCC"/>
<path d="M274.531 307.496H215.23C215.208 307.496 215.186 307.492 215.165 307.484C215.144 307.475 215.125 307.463 215.11 307.447C215.094 307.431 215.081 307.412 215.073 307.392C215.064 307.371 215.06 307.349 215.06 307.327C215.06 307.304 215.064 307.282 215.073 307.262C215.081 307.241 215.094 307.222 215.11 307.206C215.125 307.191 215.144 307.178 215.165 307.17C215.186 307.161 215.208 307.157 215.23 307.157H274.531C274.576 307.158 274.618 307.176 274.65 307.207C274.682 307.239 274.699 307.282 274.699 307.327C274.699 307.371 274.682 307.414 274.65 307.446C274.618 307.478 274.576 307.496 274.531 307.496V307.496Z" fill="#CCCCCC"/>
<path d="M200.138 146.453V6.01864C200.14 4.42295 200.774 2.89315 201.903 1.76483C203.031 0.636509 204.561 0.00181504 206.156 0H317.167C318.762 0.00182561 320.292 0.636523 321.42 1.76484C322.549 2.89316 323.183 4.42296 323.185 6.01864V146.453C323.183 148.049 322.549 149.579 321.42 150.707C320.292 151.835 318.762 152.47 317.167 152.472H206.156C204.561 152.47 203.031 151.835 201.903 150.707C200.774 149.579 200.14 148.049 200.138 146.453V146.453ZM206.156 1.33748C204.915 1.33887 203.725 1.83251 202.848 2.71009C201.97 3.58768 201.477 4.77754 201.475 6.01864V146.453C201.477 147.694 201.97 148.884 202.848 149.762C203.725 150.639 204.915 151.133 206.156 151.134H317.167C318.408 151.133 319.597 150.639 320.475 149.762C321.353 148.884 321.846 147.694 321.848 146.453V6.01864C321.846 4.77754 321.353 3.58768 320.475 2.71009C319.597 1.83251 318.408 1.33887 317.167 1.33748H206.156Z" fill="#E6E6E6"/>
<path d="M267.886 64.494V35.6584C267.887 34.8605 268.205 34.0956 268.769 33.5314C269.333 32.9673 270.098 32.6499 270.896 32.649H295.331C296.129 32.6499 296.894 32.9673 297.458 33.5314C298.022 34.0956 298.34 34.8605 298.341 35.6584V64.494C298.34 65.2919 298.022 66.0568 297.458 66.6209C296.894 67.1851 296.129 67.5025 295.331 67.5033H270.896C270.098 67.5025 269.333 67.1851 268.769 66.6209C268.205 66.0568 267.887 65.2919 267.886 64.494V64.494Z" fill="#5F6FEE"/>
<path d="M220.406 77.8688V49.0332C220.407 48.2354 220.724 47.4705 221.289 46.9063C221.853 46.3421 222.618 46.0248 223.416 46.0239H247.851C248.649 46.0248 249.414 46.3421 249.978 46.9063C250.542 47.4705 250.86 48.2354 250.861 49.0332V77.8689C250.86 78.6667 250.542 79.4317 249.978 79.9958C249.414 80.56 248.649 80.8773 247.851 80.8782H223.416C222.618 80.8773 221.853 80.56 221.289 79.9958C220.724 79.4316 220.407 78.6667 220.406 77.8688V77.8688Z" fill="#CCCCCC"/>
<path d="M258.524 118.662V89.8261C258.525 89.0282 258.842 88.2633 259.407 87.6991C259.971 87.135 260.736 86.8177 261.533 86.8168H285.969C286.767 86.8177 287.532 87.135 288.096 87.6991C288.66 88.2633 288.978 89.0282 288.978 89.8261V118.662C288.978 119.46 288.66 120.225 288.096 120.789C287.532 121.353 286.767 121.67 285.969 121.671H261.533C260.736 121.67 259.971 121.353 259.407 120.789C258.842 120.225 258.525 119.46 258.524 118.662V118.662Z" fill="#FF6584"/>
<path d="M404.55 250.496H379.408C379.169 250.496 378.934 250.551 378.72 250.656L372.374 253.833C372.165 253.922 371.987 254.07 371.862 254.259C371.737 254.449 371.67 254.67 371.67 254.897C371.67 255.124 371.737 255.346 371.862 255.535C371.987 255.725 372.165 255.873 372.374 255.962L378.72 259.138C378.934 259.244 379.169 259.299 379.408 259.298H404.55C404.897 259.318 405.237 259.201 405.498 258.972C405.758 258.743 405.918 258.42 405.943 258.074V251.721C405.918 251.374 405.758 251.052 405.498 250.823C405.237 250.593 404.897 250.476 404.55 250.496Z" fill="#3F3D56"/>
<path d="M405.943 251.721V258.074C405.918 258.42 405.758 258.743 405.498 258.972C405.237 259.201 404.897 259.318 404.55 259.298H399.541V250.496H404.55C404.897 250.476 405.237 250.593 405.498 250.823C405.758 251.052 405.918 251.374 405.943 251.721V251.721Z" fill="#5F6FEE"/>
<path d="M404.361 202.964C405.5 202.473 406.73 202.228 407.97 202.245C409.21 202.262 410.433 202.54 411.558 203.063C412.683 203.585 413.684 204.339 414.498 205.276C415.311 206.212 415.917 207.31 416.276 208.497C416.388 208.874 416.474 209.257 416.532 209.646L451.692 227.081L459.828 221.688L469.952 233.343L457.528 243.434C456.034 244.638 454.192 245.328 452.274 245.402C450.357 245.476 448.467 244.93 446.885 243.844L411.213 219.176C410.947 219.288 410.676 219.387 410.4 219.472C409.213 219.831 407.963 219.935 406.733 219.778C405.502 219.62 404.319 219.204 403.261 218.557C402.202 217.911 401.292 217.047 400.591 216.025C399.889 215.002 399.411 213.842 399.189 212.622C399.123 212.267 399.08 211.909 399.059 211.55C398.96 209.748 399.415 207.96 400.363 206.425C401.311 204.89 402.706 203.683 404.361 202.964V202.964Z" fill="#FFB8B8"/>
<path d="M477.591 310.31H439.173C439.173 311.414 399.58 312.31 399.58 312.31C398.958 312.778 398.392 313.315 397.891 313.911C396.387 315.704 395.565 317.972 395.57 320.312V321.913C395.571 324.565 396.625 327.109 398.501 328.984C400.377 330.86 402.92 331.914 405.573 331.915H477.591C480.243 331.913 482.785 330.858 484.661 328.983C486.536 327.108 487.591 324.565 487.593 321.913V320.312C487.589 317.661 486.534 315.119 484.659 313.244C482.784 311.369 480.242 310.313 477.591 310.31V310.31Z" fill="#3F3D56"/>
<path d="M435.802 398.734H446.204V331.518H435.802V398.734Z" fill="#3F3D56"/>
<path d="M406.194 398.369C406.194 399.493 421.958 398.804 441.403 398.804C460.848 398.804 476.611 399.493 476.611 398.369C476.611 397.245 460.848 388.332 441.403 388.332C421.958 388.332 406.194 397.245 406.194 398.369Z" fill="#3F3D56"/>
<path d="M415.585 390.491L405.775 390.49L401.108 365.046L415.586 365.047L415.585 390.491Z" fill="#FFB8B8"/>
<path d="M418.087 400L386.455 399.999V399.599C386.455 397.982 386.773 396.381 387.392 394.887C388.011 393.393 388.917 392.036 390.061 390.893C391.204 389.749 392.561 388.843 394.055 388.224C395.549 387.605 397.15 387.287 398.767 387.287H398.768L418.087 387.288L418.087 400Z" fill="#2F2E41"/>
<path d="M400.912 374.712L381.354 330.855C379.722 327.159 379.541 322.983 380.849 319.16C382.156 315.336 384.857 312.145 388.411 310.223L430.832 287.475L450.19 285.829L468.046 284.206L468.175 284.424C468.34 284.702 472.179 291.333 469.584 298.605C467.615 304.12 462.495 308.428 454.365 311.409C435.389 318.367 413.467 324.314 404.924 326.547C404.546 326.644 404.193 326.819 403.888 327.062C403.583 327.305 403.333 327.609 403.154 327.956C402.975 328.298 402.868 328.673 402.841 329.059C402.814 329.444 402.867 329.831 402.997 330.195L421.167 371.017C421.357 371.535 421.425 372.089 421.367 372.637C421.308 373.186 421.125 373.713 420.83 374.179C420.536 374.646 420.138 375.038 419.668 375.326C419.198 375.614 418.668 375.791 418.119 375.842L404.542 376.83C404.427 376.841 404.312 376.847 404.198 376.847C403.502 376.846 402.822 376.645 402.239 376.266C401.656 375.887 401.195 375.348 400.912 374.712V374.712Z" fill="#2F2E41"/>
<path d="M420.386 390.491L410.576 390.49L405.909 365.046L420.388 365.047L420.386 390.491Z" fill="#FFB8B8"/>
<path d="M422.888 400L391.256 399.999V399.599C391.256 397.982 391.574 396.381 392.193 394.887C392.812 393.393 393.719 392.036 394.862 390.893C396.005 389.749 397.363 388.843 398.856 388.224C400.35 387.605 401.951 387.287 403.568 387.287H403.569L422.889 387.288L422.888 400Z" fill="#2F2E41"/>
<path d="M406.514 377.113L386.956 333.256C385.323 329.56 385.143 325.384 386.45 321.56C387.758 317.736 390.458 314.546 394.013 312.624L436.434 289.876L455.792 288.229L473.648 286.606L473.776 286.824C473.941 287.102 477.78 293.734 475.185 301.005C473.217 306.52 468.096 310.829 459.966 313.81C440.99 320.768 419.069 326.715 410.525 328.948C410.148 329.044 409.795 329.22 409.49 329.463C409.185 329.705 408.935 330.01 408.756 330.356C408.576 330.698 408.47 331.074 408.443 331.459C408.416 331.845 408.469 332.232 408.599 332.596L426.768 373.417C426.958 373.935 427.026 374.49 426.968 375.038C426.91 375.586 426.726 376.114 426.432 376.58C426.137 377.046 425.739 377.438 425.269 377.727C424.799 378.015 424.269 378.191 423.72 378.242L410.144 379.231C410.028 379.242 409.914 379.247 409.799 379.247C409.104 379.247 408.424 379.045 407.841 378.666C407.257 378.288 406.797 377.748 406.514 377.113V377.113Z" fill="#2F2E41"/>
<path d="M396.765 243.135C388.547 232.204 382.05 220.078 377.5 207.181C377.237 206.41 377.256 205.57 377.553 204.811C377.851 204.052 378.408 203.423 379.126 203.037L407.249 187.968C407.704 187.722 408.209 187.583 408.726 187.562C409.242 187.541 409.757 187.639 410.23 187.847C410.713 188.056 411.141 188.373 411.482 188.773C411.823 189.173 412.069 189.645 412.2 190.154C415.473 202.583 421.626 214.066 430.161 223.675C430.512 224.066 430.77 224.532 430.914 225.038C431.058 225.544 431.084 226.076 430.992 226.593C430.903 227.102 430.699 227.585 430.395 228.003C430.091 228.422 429.696 228.765 429.24 229.008L401.117 244.077C400.397 244.461 399.565 244.577 398.768 244.404C397.971 244.232 397.262 243.782 396.765 243.135V243.135Z" fill="#CCCCCC"/>
<path d="M398.685 241.693C398.836 241.882 399.048 242.012 399.285 242.061C399.522 242.11 399.769 242.075 399.983 241.961L428.106 226.892C428.242 226.821 428.361 226.719 428.451 226.595C428.542 226.47 428.602 226.326 428.628 226.174C428.657 226.014 428.649 225.849 428.604 225.692C428.559 225.536 428.478 225.392 428.368 225.272C419.582 215.379 413.248 203.558 409.878 190.763C409.839 190.605 409.764 190.458 409.659 190.334C409.553 190.21 409.421 190.112 409.271 190.047C409.13 189.984 408.977 189.955 408.823 189.961C408.669 189.967 408.518 190.009 408.383 190.084L380.26 205.153C380.047 205.268 379.881 205.454 379.79 205.678C379.7 205.903 379.691 206.152 379.764 206.383C384.233 219.049 390.613 230.957 398.685 241.693V241.693Z" fill="white"/>
<path d="M490.195 239.116L468.17 247.485L462.792 232.548C462.078 230.565 462.089 228.393 462.821 226.416C463.553 224.439 464.961 222.785 466.795 221.746V221.746C468.65 220.695 470.82 220.341 472.913 220.75C475.006 221.159 476.884 222.302 478.208 223.974L490.195 239.116Z" fill="#5F6FEE"/>
<path d="M434.173 298.298C433.71 297.97 433.321 297.548 433.034 297.058C432.746 296.568 432.566 296.023 432.506 295.458C429.685 269.124 431.65 248.516 438.512 232.455C439.721 229.685 441.542 227.225 443.838 225.26C446.134 223.294 448.845 221.875 451.769 221.108L469.573 220.21L469.665 220.254C473.683 222.222 476.959 225.432 479.009 229.409C481.058 233.385 481.772 237.917 481.043 242.331C475.317 257.425 470.522 273.14 474.179 285.818C474.332 286.348 474.377 286.904 474.31 287.451C474.244 287.999 474.067 288.528 473.792 289.006C473.524 289.468 473.165 289.87 472.736 290.188C472.307 290.505 471.818 290.732 471.298 290.853L437.387 298.92C436.838 299.051 436.267 299.063 435.713 298.956C435.159 298.848 434.634 298.624 434.173 298.298Z" fill="#5F6FEE"/>
<path d="M463.631 213.56C474.486 213.56 483.285 204.761 483.285 193.906C483.285 183.052 474.486 174.253 463.631 174.253C452.777 174.253 443.978 183.052 443.978 193.906C443.978 204.761 452.777 213.56 463.631 213.56Z" fill="#FFB8B8"/>
<path d="M409.096 209.473L393.779 216.234C393.196 216.49 392.536 216.505 391.942 216.275C391.349 216.045 390.871 215.589 390.613 215.007L390.234 214.149C389.978 213.567 389.963 212.906 390.193 212.313C390.423 211.719 390.879 211.241 391.461 210.983L406.778 204.222C407.36 203.966 408.021 203.951 408.614 204.181C409.208 204.411 409.686 204.867 409.943 205.449L410.322 206.307C410.579 206.89 410.594 207.55 410.364 208.144C410.134 208.737 409.678 209.215 409.096 209.473V209.473Z" fill="#CCCCCC"/>
<path d="M414.697 219.875L399.38 226.636C398.797 226.893 398.137 226.908 397.543 226.678C396.95 226.448 396.472 225.992 396.214 225.41L395.835 224.552C395.579 223.969 395.564 223.309 395.794 222.715C396.024 222.122 396.48 221.644 397.062 221.386L412.379 214.625C412.962 214.368 413.622 214.353 414.216 214.583C414.809 214.813 415.287 215.269 415.545 215.851L415.924 216.71C416.18 217.292 416.195 217.953 415.965 218.546C415.735 219.139 415.279 219.617 414.697 219.875V219.875Z" fill="#CCCCCC"/>
<path d="M426.509 260.507L392.361 233.567C392.089 233.663 391.813 233.745 391.532 233.812C390.327 234.094 389.076 234.119 387.86 233.886C386.645 233.653 385.492 233.166 384.476 232.459C383.454 231.75 382.595 230.832 381.956 229.764C381.318 228.697 380.915 227.506 380.774 226.27C380.545 224.295 380.99 222.3 382.037 220.61C383.085 218.919 384.672 217.632 386.543 216.957C387.71 216.539 388.953 216.371 390.19 216.466C391.426 216.561 392.629 216.916 393.719 217.508C394.809 218.101 395.761 218.916 396.514 219.902C397.267 220.888 397.802 222.022 398.087 223.229C398.175 223.612 398.236 224 398.27 224.391L432.263 244.002L440.723 239.131L450.094 251.4L436.959 260.762C435.422 261.849 433.575 262.411 431.692 262.365C429.81 262.319 427.992 261.667 426.509 260.507V260.507Z" fill="#FFB8B8"/>
<path d="M454.261 255.221L434.777 241.971L443.934 229.003C445.15 227.281 446.935 226.044 448.975 225.511C451.014 224.978 453.176 225.183 455.079 226.09V226.09C457.004 227.008 458.538 228.583 459.403 230.532C460.268 232.482 460.407 234.676 459.796 236.719L454.261 255.221Z" fill="#5F6FEE"/>
<path d="M456.426 190.979C451.374 194.436 444.741 197.99 439.582 194.309C436.195 191.891 435.127 187.414 436.501 183.486C438.971 176.421 445.759 173.311 452.249 170.927C460.687 167.828 469.874 165.362 478.585 167.582C487.295 169.801 494.993 178.235 493.421 187.085C492.156 194.202 485.443 200.124 486.396 207.29C487.355 214.501 495.465 218.297 502.625 219.586C509.785 220.875 517.797 221.289 522.943 226.432C529.507 232.993 527.868 244.719 521.691 251.646C515.514 258.573 506.194 261.712 497.162 263.847C485.195 266.675 472.253 268.161 460.887 263.468C449.522 258.774 440.678 246.14 443.97 234.293C445.361 229.288 448.637 225.059 451.803 220.942C454.969 216.824 458.175 212.519 459.383 207.467C460.389 203.258 459.644 198.37 456.853 195.212C456.345 194.66 456.025 193.96 455.94 193.215C455.854 192.469 456.007 191.716 456.377 191.062L456.426 190.979Z" fill="#2F2E41"/>
<path d="M87.2794 286.469C82.215 288.25 76.7775 288.696 71.4908 287.764C66.204 286.833 61.2462 284.556 57.095 281.152C46.5228 272.279 43.2081 257.66 40.511 244.123C37.8519 230.777 35.1928 217.431 32.5337 204.085L49.2351 215.585C61.2458 223.855 73.5271 232.39 81.8432 244.369C90.1594 256.348 93.7894 272.7 87.1076 285.662" fill="#E6E6E6"/>
<path d="M85.8517 334.944C87.5421 322.631 89.2803 310.16 88.0945 297.715C87.0415 286.663 83.6695 275.867 76.8047 267.016C73.1608 262.327 68.7269 258.309 63.7024 255.143C62.3921 254.316 61.1862 256.393 62.4908 257.216C71.1847 262.711 77.9091 270.824 81.6946 280.387C85.8755 291.021 86.5469 302.613 85.8264 313.91C85.3907 320.741 84.4673 327.528 83.5368 334.306C83.4634 334.612 83.5092 334.935 83.6648 335.21C83.8204 335.484 84.0743 335.688 84.3751 335.782C84.682 335.865 85.0092 335.824 85.2856 335.667C85.562 335.51 85.7654 335.25 85.8516 334.944H85.8517Z" fill="#F2F2F2"/>
<path d="M69.5699 313.156C67.3979 316.457 64.4123 319.143 60.9008 320.956C57.3893 322.768 53.4702 323.646 49.5211 323.504C39.3721 323.022 30.9111 315.938 23.2945 309.214L0.766357 289.323L15.6763 288.609C26.3986 288.096 37.3976 287.618 47.6102 290.924C57.8229 294.231 67.2415 302.189 69.109 312.759" fill="#E6E6E6"/>
<path d="M90.6289 342.022C82.4927 327.626 73.0554 311.626 56.1926 306.512C51.5039 305.095 46.5875 304.587 41.7081 305.016C40.1703 305.149 40.5543 307.52 42.0894 307.387C50.2682 306.708 58.4313 308.868 65.2043 313.503C71.7218 317.939 76.7964 324.106 81.0915 330.647C83.7223 334.653 86.0789 338.829 88.436 343C89.1892 344.333 91.3909 343.371 90.6289 342.022V342.022Z" fill="#F2F2F2"/>
<path d="M103.665 357.176C103.391 353.999 102.251 350.959 100.368 348.386C98.4856 345.813 95.9331 343.805 92.9886 342.583V334.26H79.0292V342.845C76.2297 344.128 73.8203 346.13 72.0468 348.647C70.2734 351.165 69.1992 354.108 68.9338 357.176L65.6514 395.332H106.948L103.665 357.176Z" fill="#F2F2F2"/>
</g>
<defs>
<clipPath id="clip0_4401_5458">
<rect width="553.737" height="400" fill="white"/>
</clipPath>
</defs>
</svg>
