<svg width="501" height="400" viewBox="0 0 501 400" fill="none" xmlns="http://www.w3.org/2000/svg">
<g clip-path="url(#clip0_4204_4740)">
<path d="M452.086 194.293H33.2205V204.571H452.086V194.293Z" fill="#E6E6E6"/>
<path d="M45.9977 189.645C47.0236 188.603 47.6641 187.18 47.6641 185.601V161.047C47.6641 159.451 47.0141 158.006 45.9742 156.959C45.4325 156.417 44.7754 155.984 44.0532 155.688C43.3816 155.421 42.6522 155.269 41.8866 155.269C38.6946 155.269 36.1092 157.854 36.1092 161.047V185.601C36.1092 187.047 36.6438 188.366 37.5215 189.379C34.9685 190.7 33.2205 193.36 33.2205 196.433H49.8306C49.8306 193.553 48.2924 191.038 45.9977 189.645Z" fill="#3F3D56"/>
<path d="M447.942 188.735C449.152 187.676 449.919 186.124 449.919 184.389V159.835C449.919 156.643 447.334 154.058 444.142 154.058C443.376 154.058 442.647 154.209 441.975 154.477C441.253 154.773 440.596 155.206 440.054 155.748C439.014 156.795 438.364 158.239 438.364 159.835V184.389C438.364 186.004 439.035 187.452 440.102 188.5C437.373 189.758 435.476 192.51 435.476 195.711H452.086C452.086 192.701 450.411 190.082 447.942 188.735Z" fill="#3F3D56"/>
<path d="M43.4971 203.93H33.2205V211.599H43.4971V203.93Z" fill="#E6E6E6"/>
<path d="M49.2382 211.599H38.355L37.8783 210.155L36.0296 204.572L35.979 204.421L37.38 203.93L45.6779 201.019L46.8695 204.572L48.7472 210.155L49.2382 211.599Z" fill="#E6E6E6"/>
<path d="M449.327 204.421L449.277 204.572L447.428 210.155L446.951 211.599H436.068L436.559 210.155L438.437 204.572L439.628 201.019L447.926 203.93L449.327 204.421Z" fill="#E6E6E6"/>
<path d="M452.086 203.93H441.809V211.599H452.086V203.93Z" fill="#E6E6E6"/>
<path d="M245.542 0H53.4414V74.3847H245.542V0Z" fill="#3F3D56"/>
<path d="M245.542 0H53.4414V74.3847H245.542V0Z" fill="#3F3D56"/>
<path d="M56.3301 0V71.496H201.773C224.35 71.496 242.653 53.1934 242.653 30.616V0H56.3301Z" fill="white"/>
<path d="M484.086 0H16.3863C7.3518 0 0 7.3518 0 16.3863V195.213C0 204.247 7.3518 211.599 16.3863 211.599H484.086C493.12 211.599 500.472 204.247 500.472 195.213V16.3863C500.472 7.3518 493.12 0 484.086 0ZM499.028 195.213C499.028 203.467 492.34 210.155 484.086 210.155H16.3863C8.13177 210.155 1.44436 203.467 1.44436 195.213V16.3863C1.44436 8.13177 8.13177 1.44436 16.3863 1.44436H386.598C448.691 1.44436 499.028 51.7804 499.028 113.874V195.213Z" fill="#3F3D56"/>
<path d="M260.975 151.102H234.16C233.373 151.102 232.738 151.745 232.738 152.539V194.895H262.412V152.539C262.412 151.745 261.769 151.102 260.975 151.102ZM250.828 172.009C250.828 172.724 250.59 173.374 250.185 173.909C249.608 174.674 248.691 175.172 247.658 175.172C246.632 175.172 245.715 174.674 245.137 173.909C244.733 173.374 244.495 172.724 244.495 172.009V167.091C244.509 165.365 245.925 163.957 247.658 163.957C249.391 163.957 250.814 165.365 250.828 167.091V172.009Z" fill="#2F2E41"/>
<path d="M232.644 193.545V197.625C232.644 198.066 232.997 198.427 233.438 198.427H261.704C262.137 198.427 262.499 198.066 262.499 197.625V193.545H232.644Z" fill="#3F3D56"/>
<path d="M305.382 85.0008H190.757C188.713 85.0008 187.045 86.669 187.045 88.7128V166.058C187.045 168.109 188.713 169.778 190.757 169.778H305.382C307.425 169.778 309.094 168.109 309.094 166.058V88.7128C309.094 86.669 307.425 85.0008 305.382 85.0008V85.0008Z" fill="#3F3D56"/>
<path d="M304.414 87.6801H191.717C190.621 87.6801 189.731 88.5692 189.731 89.6661V142.914C189.731 156.211 200.611 167.091 213.909 167.091H304.421C305.513 167.091 306.407 166.197 306.407 165.105V89.6733C306.407 88.577 305.51 87.6801 304.414 87.6801Z" fill="white"/>
<path d="M283.673 198.362L282.814 194.296L282.633 193.422C282.518 192.851 282.012 192.44 281.427 192.44H216.452C215.875 192.44 215.369 192.851 215.246 193.422L215.066 194.296L214.206 198.362C214.134 198.73 214.221 199.105 214.459 199.394C214.69 199.683 215.044 199.849 215.412 199.849H282.467C282.843 199.849 283.189 199.683 283.427 199.394C283.659 199.105 283.752 198.73 283.673 198.362H283.673Z" fill="#3F3D56"/>
<path d="M218.73 193.33H217.198C217.051 193.33 216.932 193.45 216.932 193.597V194.303C216.932 194.45 217.051 194.569 217.198 194.569H218.73C218.877 194.569 218.997 194.45 218.997 194.303V193.597C218.997 193.45 218.877 193.33 218.73 193.33Z" fill="#E6E6E6"/>
<path d="M280.637 195.396H279.105C278.958 195.396 278.839 195.515 278.839 195.662V196.368C278.839 196.515 278.958 196.635 279.105 196.635H280.637C280.784 196.635 280.904 196.515 280.904 196.368V195.662C280.904 195.515 280.784 195.396 280.637 195.396Z" fill="#E6E6E6"/>
<path d="M252.964 197.874H236.975C236.828 197.874 236.709 197.993 236.709 198.14V198.846C236.709 198.993 236.828 199.113 236.975 199.113H252.964C253.111 199.113 253.23 198.993 253.23 198.846V198.14C253.23 197.993 253.111 197.874 252.964 197.874Z" fill="#E6E6E6"/>
<path d="M67.6367 140.749C58.9695 112.009 58.4267 83.2273 68.6462 54.3923C68.6929 50.7531 71.6765 47.8384 75.3159 47.8768L140.535 48.6391C144.174 48.6858 147.089 51.6694 147.05 55.3088L146.041 141.666C145.994 145.305 143.01 148.22 139.371 148.181L74.1524 147.419C70.5131 147.372 67.5983 144.389 67.6367 140.749L67.6367 140.749Z" fill="#F2F2F2"/>
<path opacity="0.2" d="M81.1686 144.17C77.5294 144.123 74.6147 141.14 74.6531 137.5C65.9858 108.76 65.443 79.9784 75.6624 51.1434C75.6828 49.9959 76.006 48.8742 76.5993 47.8917L75.3159 47.8767C71.6766 47.8383 68.6929 50.7529 68.6461 54.3921C58.4267 83.2271 58.9695 112.008 67.6368 140.749C67.5984 144.388 70.5131 147.372 74.1523 147.419L139.371 148.181C141.729 148.201 143.917 146.955 145.104 144.917L81.1686 144.17Z" fill="black"/>
<path d="M129.208 96.8885L85.5025 96.4988C84.0542 96.4842 82.892 95.2983 82.9066 93.85C82.9212 92.4042 84.1034 91.243 85.5492 91.2541L129.255 91.6438C130.703 91.6613 131.863 92.8495 131.845 94.2977C131.828 95.7395 130.65 96.8968 129.208 96.8885L129.208 96.8885Z" fill="white"/>
<path d="M95.246 82.2034L85.6308 82.1177C84.1825 82.1094 83.0151 80.9285 83.0235 79.4802C83.0318 78.0319 84.2127 76.8645 85.661 76.8728L85.6776 76.873L95.2928 76.9588C96.741 76.9762 97.9008 78.1645 97.8834 79.6127C97.866 81.0545 96.6879 82.2118 95.246 82.2034V82.2034Z" fill="white"/>
<path d="M129.003 119.946L85.2968 119.556C83.8486 119.538 82.6888 118.35 82.7062 116.902C82.7236 115.46 83.9018 114.303 85.3436 114.311L129.049 114.701C130.498 114.709 131.665 115.89 131.657 117.338C131.648 118.787 130.467 119.954 129.019 119.946L129.003 119.945V119.946Z" fill="white"/>
<path d="M129.105 108.417L85.3996 108.027C83.9513 108.016 82.7863 106.833 82.7974 105.385C82.8086 103.936 83.9917 102.771 85.4401 102.783L85.4463 102.783L129.152 103.172C130.6 103.19 131.76 104.378 131.743 105.826C131.725 107.268 130.547 108.425 129.105 108.417L129.105 108.417H129.105Z" fill="white"/>
<path d="M84.1581 61.2977C87.2756 61.2977 89.8029 58.7705 89.8029 55.653C89.8029 52.5355 87.2756 50.0083 84.1581 50.0083C81.0407 50.0083 78.5134 52.5355 78.5134 55.653C78.5134 58.7705 81.0407 61.2977 84.1581 61.2977Z" fill="#3F3D56"/>
<path d="M131.688 62.7421C134.806 62.7421 137.333 60.2149 137.333 57.0974C137.333 53.9799 134.806 51.4527 131.688 51.4527C128.571 51.4527 126.043 53.9799 126.043 57.0974C126.043 60.2149 128.571 62.7421 131.688 62.7421Z" fill="#3F3D56"/>
<path d="M197.461 97.8069C198.785 97.8069 199.859 96.7092 199.859 95.3552C199.859 94.0012 198.785 92.9036 197.461 92.9036C196.136 92.9036 195.062 94.0012 195.062 95.3552C195.062 96.7092 196.136 97.8069 197.461 97.8069Z" fill="#F2F2F2"/>
<path d="M205.745 97.8069C207.07 97.8069 208.144 96.7092 208.144 95.3552C208.144 94.0012 207.07 92.9036 205.745 92.9036C204.421 92.9036 203.347 94.0012 203.347 95.3552C203.347 96.7092 204.421 97.8069 205.745 97.8069Z" fill="#F2F2F2"/>
<path d="M214.03 97.8069C215.355 97.8069 216.428 96.7092 216.428 95.3552C216.428 94.0012 215.355 92.9036 214.03 92.9036C212.706 92.9036 211.632 94.0012 211.632 95.3552C211.632 96.7092 212.706 97.8069 214.03 97.8069Z" fill="#F2F2F2"/>
<path d="M223.477 97.2929C223.403 97.2929 223.33 97.2644 223.274 97.2076L221.656 95.5535C221.548 95.4432 221.548 95.2671 221.656 95.1569L223.274 93.5028C223.384 93.3909 223.564 93.3891 223.675 93.4984C223.787 93.6079 223.789 93.7875 223.68 93.8994L222.256 95.3552L223.68 96.811C223.789 96.9229 223.787 97.1025 223.675 97.2121C223.62 97.2661 223.549 97.2929 223.477 97.2929V97.2929Z" fill="#F2F2F2"/>
<path d="M226.196 97.293C226.125 97.293 226.053 97.2661 225.998 97.2121C225.886 97.1026 225.884 96.9231 225.993 96.8111L227.418 95.3552L225.993 93.8994C225.884 93.7875 225.886 93.608 225.998 93.4984C226.11 93.3887 226.289 93.3908 226.399 93.5028L228.017 95.1569C228.125 95.2671 228.125 95.4433 228.017 95.5535L226.399 97.2077C226.343 97.2644 226.27 97.293 226.196 97.293V97.293Z" fill="#F2F2F2"/>
<path d="M292.134 93.1874H289.125C288.782 93.1874 288.504 93.4653 288.504 93.8085V96.8202C288.504 97.1634 288.782 97.4413 289.125 97.4413H292.134C292.477 97.4413 292.758 97.1634 292.758 96.8202V93.8085C292.758 93.4653 292.477 93.1874 292.134 93.1874Z" fill="#F2F2F2"/>
<path d="M284.76 93.1874H281.751C281.408 93.1874 281.13 93.4653 281.13 93.8085V96.8202C281.13 97.1634 281.408 97.4413 281.751 97.4413H284.76C285.103 97.4413 285.384 97.1634 285.384 96.8202V93.8085C285.384 93.4653 285.103 93.1874 284.76 93.1874Z" fill="#F2F2F2"/>
<path d="M299.082 93.3292H296.073C295.73 93.3292 295.452 93.6071 295.452 93.9503V96.962C295.452 97.3052 295.73 97.5831 296.073 97.5831H299.082C299.425 97.5831 299.706 97.3052 299.706 96.962V93.9503C299.706 93.6071 299.425 93.3292 299.082 93.3292Z" fill="#F2F2F2"/>
<path d="M259.401 94.4749H247.828C247.408 94.4749 247.071 94.8152 247.071 95.2321C247.071 95.649 247.408 95.9893 247.828 95.9893H259.401C259.818 95.9893 260.158 95.649 260.158 95.2321C260.158 94.8153 259.818 94.4749 259.401 94.4749Z" fill="#F2F2F2"/>
<path d="M218.886 23.2469C217.527 18.7398 217.442 14.2265 219.044 9.70466C219.052 9.13397 219.52 8.6769 220.09 8.68292L230.318 8.80246C230.888 8.80978 231.346 9.27767 231.339 9.84838L231.181 23.3906C231.174 23.9613 230.706 24.4184 230.135 24.4123L219.908 24.2928C219.337 24.2855 218.88 23.8176 218.886 23.2469Z" fill="#F2F2F2"/>
<path opacity="0.2" d="M221.008 23.7833C220.438 23.776 219.98 23.3081 219.986 22.7374C218.627 18.2304 218.542 13.717 220.145 9.19521C220.148 9.01525 220.199 8.83935 220.292 8.68528L220.09 8.68292C219.52 8.6769 219.052 9.13397 219.044 9.70466C217.442 14.2265 217.527 18.7398 218.886 23.2469C218.88 23.8176 219.337 24.2855 219.908 24.2928L230.135 24.4123C230.505 24.4154 230.848 24.2201 231.034 23.9005L221.008 23.7833Z" fill="black"/>
<path d="M197.221 23.2469C195.861 18.7398 195.776 14.2265 197.379 9.70466C197.386 9.13397 197.854 8.6769 198.425 8.68292L208.652 8.80246C209.223 8.80978 209.68 9.27767 209.674 9.84838L209.516 23.3906C209.508 23.9613 209.04 24.4184 208.47 24.4123L198.242 24.2928C197.672 24.2855 197.215 23.8176 197.221 23.2469Z" fill="#F2F2F2"/>
<path opacity="0.2" d="M199.343 23.7833C198.772 23.776 198.315 23.3081 198.321 22.7374C196.962 18.2304 196.877 13.717 198.479 9.19521C198.482 9.01525 198.533 8.83935 198.626 8.68528L198.425 8.68292C197.854 8.6769 197.386 9.13397 197.379 9.70466C195.776 14.2265 195.861 18.7398 197.221 23.2469C197.215 23.8176 197.672 24.2855 198.242 24.2928L208.47 24.4123C208.84 24.4154 209.183 24.2201 209.369 23.9005L199.343 23.7833Z" fill="black"/>
<path d="M179.888 23.2469C178.529 18.7398 178.444 14.2265 180.047 9.70466C180.054 9.13397 180.522 8.6769 181.093 8.68292L191.32 8.80246C191.891 8.80978 192.348 9.27767 192.342 9.84838L192.183 23.3906C192.176 23.9613 191.708 24.4184 191.137 24.4123L180.91 24.2928C180.339 24.2855 179.882 23.8176 179.888 23.2469Z" fill="#F2F2F2"/>
<path opacity="0.2" d="M182.01 23.7833C181.44 23.776 180.983 23.3081 180.989 22.7374C179.629 18.2304 179.544 13.717 181.147 9.19521C181.15 9.01525 181.201 8.83935 181.294 8.68528L181.093 8.68292C180.522 8.6769 180.054 9.13397 180.047 9.70466C178.444 14.2265 178.529 18.7398 179.888 23.2469C179.882 23.8176 180.339 24.2855 180.91 24.2928L191.137 24.4123C191.507 24.4154 191.85 24.2201 192.036 23.9005L182.01 23.7833Z" fill="black"/>
<path d="M186.937 13.7745C188.034 13.7745 188.924 12.8851 188.924 11.7881C188.924 10.691 188.034 9.80164 186.937 9.80164C185.84 9.80164 184.951 10.691 184.951 11.7881C184.951 12.8851 185.84 13.7745 186.937 13.7745Z" fill="#3F3D56"/>
<path d="M203.547 13.7745C204.644 13.7745 205.534 12.8851 205.534 11.7881C205.534 10.691 204.644 9.80164 203.547 9.80164C202.45 9.80164 201.561 10.691 201.561 11.7881C201.561 12.8851 202.45 13.7745 203.547 13.7745Z" fill="#3F3D56"/>
<path d="M224.49 13.7745C225.587 13.7745 226.477 12.8851 226.477 11.7881C226.477 10.691 225.587 9.80164 224.49 9.80164C223.393 9.80164 222.504 10.691 222.504 11.7881C222.504 12.8851 223.393 13.7745 224.49 13.7745Z" fill="#3F3D56"/>
<path d="M46.2196 161.047V185.601C46.2196 187.196 45.5733 188.639 44.5292 189.684C43.8237 190.39 42.6086 189.858 42.6086 188.86V157.778C42.6086 156.789 43.8112 156.246 44.5133 156.943L44.5296 156.959C45.5696 158.006 46.2196 159.45 46.2196 161.046L46.2196 161.047Z" fill="#5F6FEE"/>
<path d="M439.809 159.835V184.389C439.809 185.985 440.455 187.427 441.499 188.473C442.204 189.179 443.42 188.647 443.42 187.649V156.567C443.42 155.578 442.217 155.035 441.515 155.731L441.499 155.748C440.459 156.795 439.809 158.239 439.809 159.835V159.835Z" fill="#5F6FEE"/>
<path d="M363.257 21.6655H313.427V80.8844H363.257V21.6655Z" fill="#3F3D56"/>
<path d="M316.316 77.9956H360.369V24.5542H316.316V77.9956Z" fill="white"/>
<path d="M338.227 28.8873C334.984 28.8873 331.944 29.7683 329.337 31.2993C325.625 33.4803 322.779 36.9829 321.458 41.1644C320.93 42.8398 320.649 44.6164 320.649 46.4652V73.6625H356.036V28.8873H338.227Z" fill="#3F3D56"/>
<path d="M347.5 73.6424H327.148C328.134 70.8501 330.236 68.5831 332.92 67.3885C334.266 66.784 335.755 66.4457 337.324 66.4457C338.454 66.4457 339.548 66.6184 340.57 66.9495C343.801 67.9642 346.378 70.4614 347.5 73.6424Z" fill="#5F6FEE"/>
<path d="M323.537 62.1076C322.541 62.1076 321.566 62.2448 320.649 62.4976V73.6625H334.341C334.363 73.4242 334.37 73.1859 334.37 72.9403C334.37 70.911 333.807 69.0044 332.839 67.3868C330.94 64.2236 327.488 62.1076 323.537 62.1076Z" fill="#5F6FEE"/>
<path d="M356.036 41.1442V31.7885C354.236 30.4356 351.991 29.6296 349.559 29.6296C345.809 29.6296 342.506 31.5439 340.57 34.4513C339.548 34.1203 338.454 33.9476 337.324 33.9476C335.756 33.9476 334.266 34.2858 332.92 34.8903C332.899 34.8998 332.879 34.9123 332.858 34.922C332.851 34.9111 332.846 34.8995 332.839 34.8886C331.965 33.437 330.766 32.202 329.337 31.2993C325.625 33.4803 322.779 36.9829 321.458 41.1643H327.156C328.974 46.0761 330.849 49.2053 332.773 50.8696C328.79 52.7302 327.266 57.6705 329.35 61.5527C333.454 69.1958 336.651 70.7828 339.389 69.3125C338.988 70.4419 338.764 71.6559 338.764 72.9227C338.764 73.1673 338.771 73.4048 338.792 73.6423H356.036V64.2867C354.236 62.9338 351.991 62.1278 349.559 62.1278C347.593 62.1278 345.753 62.6578 344.165 63.5774L344.199 63.5168C346.424 59.5523 350.57 57.0523 355.116 57.0523H356.036V47.6967C354.236 46.3437 351.991 45.5377 349.559 45.5377C347.268 45.5377 345.146 46.255 343.398 47.474L343.468 47.384C346.497 43.4887 351.102 41.1442 356.036 41.1442L356.036 41.1442Z" fill="#5F6FEE"/>
<path d="M337.259 32.4982H336.537V73.6625H337.259V32.4982Z" fill="#3F3D56"/>
<path d="M366.275 387.566L360.797 387.52L358.372 365.897L366.457 365.966L366.275 387.566Z" fill="#FFB6B6"/>
<path d="M348.728 396.277C348.716 397.626 349.803 398.736 351.156 398.748L362.048 398.839L363.954 394.974L364.655 398.859L368.765 398.896L367.727 385.04L366.297 384.945L360.465 384.543L358.583 384.417L358.55 388.338L349.801 394.272C349.135 394.724 348.734 395.473 348.728 396.277V396.277Z" fill="#2F2E41"/>
<path d="M426.193 387.566L420.715 387.52L418.29 365.897L426.375 365.966L426.193 387.566Z" fill="#FFB6B6"/>
<path d="M408.646 396.277C408.634 397.626 409.721 398.736 411.075 398.748L421.966 398.839L423.873 394.974L424.573 398.859L428.683 398.896L427.645 385.04L426.216 384.945L420.384 384.543L418.502 384.417L418.469 388.338L409.72 394.272C409.054 394.724 408.653 395.473 408.646 396.277V396.277Z" fill="#2F2E41"/>
<path d="M335.864 75.9946C338.167 78.141 337.951 81.985 335.415 83.8502L341.663 108.832L335.178 112.259L327.975 82.5334C326.71 80.5772 326.89 77.9425 328.566 76.1795C330.53 74.1133 333.797 74.0305 335.864 75.9946H335.864Z" fill="#FFB6B6"/>
<path d="M367.98 217.01H413.673C413.673 217.01 427.623 237.461 424.441 256.551L417.813 313.022L431.865 379.039L418.343 380.365L395.012 313.022L391.831 272.193L385.998 316.204L367.98 378.375L354.978 378.509L362.667 315.674L365.855 256.466C365.855 256.466 367.803 252.367 366.163 250.747C364.523 249.127 366.405 246.251 366.405 246.251C366.405 246.251 368.918 242.273 366.72 240.398C364.523 238.522 367.98 217.01 367.98 217.01Z" fill="#2F2E41"/>
<path d="M429.698 233.75C429.698 233.75 388.338 222.614 389.929 235.34C390.633 240.974 367.563 237.414 360.442 236.576L367.393 206.442L355.866 235.956C353.766 235.627 352.461 235.372 352.461 235.372L367.658 198.223C367.658 198.223 369.249 162.166 365.988 153.326C362.727 144.487 370.84 140.956 370.84 140.956C378.854 135.01 382.68 129.137 379.276 123.388L396.822 124.899L398.413 133.532L413.334 140.796L406.064 183.8C406.064 183.8 405.118 184.845 405.742 185.701C406.367 186.557 406.475 187.239 405.361 187.959C404.246 188.678 404.766 191.478 404.766 191.478C404.766 191.478 404.819 193.209 405.858 193.33C406.897 193.451 406.543 194.492 406.543 194.492C406.543 194.492 406.475 196.594 407.481 196.083C408.158 195.739 423.167 224.597 424.311 224.136C425.456 223.675 425.061 227.079 426.054 227.233C427.047 227.387 427.054 229.014 427.482 229.78C428.849 232.221 429.698 233.75 429.698 233.75V233.75Z" fill="#5F6FEE"/>
<path d="M382.831 155.579L384.634 138.75L361.107 133.068L337.48 89.521L330.056 92.7025V100.126C330.056 100.126 323.693 106.489 345.154 136.76L351.266 145.198L384.634 160.867L382.831 155.579V155.579Z" fill="#5F6FEE"/>
<path d="M362.618 55.4576C361.835 58.5065 364.087 61.6291 367.228 61.8343L375.424 86.2463L382.733 85.6396L372.787 56.7162C372.799 54.3867 371.228 52.2642 368.866 51.6818C366.098 50.9992 363.301 52.6897 362.618 55.4576L362.618 55.4576Z" fill="#FFB6B6"/>
<path d="M412.857 146.847C418.851 142.921 419.589 134.418 414.359 129.518L389.128 105.878C389.128 105.878 390.08 68.8457 380.274 68.7554L378.155 62.1321L366.749 67.5749L368.135 73.049C368.135 73.049 368.882 95.7021 375.582 102.458C375.703 112 379.702 114.53 379.702 114.53L412.857 146.847Z" fill="#5F6FEE"/>
<path d="M390.192 122.725C398.495 122.725 405.225 115.994 405.225 107.692C405.225 99.3889 398.495 92.6583 390.192 92.6583C381.889 92.6583 375.159 99.3889 375.159 107.692C375.159 115.994 381.889 122.725 390.192 122.725Z" fill="#FFB6B6"/>
<path d="M426.719 148.371C426.611 150.53 425.579 152.603 423.665 153.592C423.058 153.896 422.423 154.127 421.765 154.293C421.744 154.076 421.708 153.867 421.672 153.657C421.072 150.104 419.584 146.717 417.411 143.857C416.378 142.499 419.238 150.198 419.96 154.531C419.303 153.217 415.959 144.782 415.742 144.464C415.742 144.478 415.757 144.522 415.786 144.615C416.869 147.887 417.36 151.353 417.281 154.805C413.092 160.778 409.445 162.388 406.087 161.717C407.098 158.987 406.99 155.824 405.625 153.238C405.249 155.78 403.928 158.142 402.035 159.875C400.447 158.77 398.901 157.304 397.363 155.751C399.782 152.841 401.458 149.324 402.151 145.605C403.14 140.398 402.194 134.845 399.544 130.259C400.822 139.567 397.262 149.353 390.48 155.824C388.877 155.578 387.433 154.943 386.79 153.513C386.191 152.169 386.595 150.581 387.354 149.324C388.097 148.067 385.49 141.994 386.364 140.824C390.018 135.956 393.492 133.617 389.578 128.958C387.779 126.814 385.274 125.167 384.197 122.582C382.84 119.325 384.147 115.605 385.721 112.457C387.303 109.301 392.568 110.774 389.043 110.485C382.984 109.994 385.627 105.076 384.299 103.025C383.555 101.877 381.72 102.065 380.348 102.05C379.864 100.425 379.186 98.8507 378.333 97.3775C378.55 98.9734 378.629 100.591 378.572 102.202C377.474 102.389 375.69 104.231 374.744 104.823L374.397 104.989C373.062 104.224 373.26 102.792 373.252 101.247C373.238 99.7017 370.263 98.2214 371.086 96.9142C373.274 93.4549 372.57 91.5062 376.629 90.979C380.688 90.4518 384.465 88.9137 387.462 91.7012C390.35 85.9237 401.595 91.0224 404.31 92.1127C407.026 93.2104 409.214 95.536 410.138 98.3091C412.29 104.736 411.2 107.697 414.905 113.367C418.075 118.22 422.56 115.93 424.661 121.332C425.983 124.741 424.409 128.511 423.008 131.883C421.607 135.263 418.711 142.954 422.321 142.406C425.398 141.929 426.893 144.991 426.719 148.371V148.371Z" fill="#2F2E41"/>
<path d="M440.909 387.482C442.401 387.576 443.226 385.722 442.097 384.642L441.985 384.195C441.999 384.16 442.014 384.124 442.029 384.088C443.538 380.49 448.651 380.515 450.147 384.118C451.475 387.316 453.166 390.52 453.582 393.901C453.769 395.394 453.685 396.914 453.353 398.379C456.465 391.583 458.102 384.162 458.102 376.698C458.102 374.823 457.999 372.948 457.789 371.078C457.617 369.548 457.379 368.027 457.071 366.52C455.406 358.376 451.8 350.619 446.599 344.14C444.099 342.774 442.014 340.637 440.755 338.077C440.302 337.153 439.948 336.159 439.78 335.147C440.064 335.185 440.853 330.851 440.638 330.585C441.035 329.984 441.744 329.685 442.177 329.097C444.331 326.177 447.298 326.687 448.848 330.655C452.157 332.326 452.189 335.095 450.158 337.759C448.866 339.454 448.689 341.747 447.555 343.562C447.672 343.711 447.793 343.856 447.91 344.005C450.048 346.748 451.898 349.696 453.457 352.793C453.016 349.351 453.667 345.204 454.776 342.531C456.039 339.485 458.405 336.92 460.489 334.287C462.992 331.125 468.125 332.505 468.566 336.514C468.57 336.553 468.574 336.592 468.578 336.631C468.269 336.805 467.965 336.991 467.669 337.187C465.98 338.304 466.564 340.923 468.566 341.232L468.611 341.239C468.499 342.354 468.308 343.459 468.028 344.546C470.701 354.885 464.93 358.65 456.689 358.819C456.507 358.913 456.329 359.006 456.147 359.095C456.982 361.446 457.649 363.857 458.144 366.301C458.587 368.461 458.895 370.644 459.067 372.836C459.282 375.602 459.263 378.382 459.03 381.144L459.044 381.046C459.636 378.004 461.288 375.164 463.685 373.195C467.257 370.261 472.303 369.181 476.156 366.823C478.011 365.687 480.388 367.154 480.064 369.305L480.048 369.408C479.474 369.641 478.915 369.912 478.374 370.215C478.064 370.389 477.761 370.575 477.465 370.771C475.775 371.888 476.359 374.507 478.361 374.816L478.406 374.823C478.439 374.828 478.467 374.833 478.5 374.837C477.515 377.174 476.144 379.343 474.428 381.214C472.756 390.239 465.576 391.095 457.897 388.467H457.892C457.052 392.124 455.826 395.697 454.249 399.102H441.235C441.188 398.957 441.146 398.808 441.104 398.663C442.308 398.738 443.521 398.668 444.706 398.449C443.74 397.264 442.774 396.07 441.809 394.885C441.786 394.862 441.767 394.839 441.748 394.815C441.258 394.209 440.764 393.607 440.274 393.001L440.274 393C440.243 391.139 440.466 389.283 440.909 387.483L440.909 387.482Z" fill="#F2F2F2"/>
<path d="M295.492 399.141C295.492 399.617 295.875 400 296.352 400H479.273C479.75 400 480.132 399.617 480.132 399.141C480.132 398.664 479.75 398.281 479.273 398.281H296.352C295.875 398.281 295.492 398.664 295.492 399.141Z" fill="#CCCCCC"/>
</g>
<defs>
<clipPath id="clip0_4204_4740">
<rect width="500.472" height="400" fill="white"/>
</clipPath>
</defs>
</svg>
