<svg width="465" height="400" viewBox="0 0 465 400" fill="none" xmlns="http://www.w3.org/2000/svg">
<g clip-path="url(#clip0_4204_4604)">
<path d="M193.201 347.502L198.274 330.981C192.17 324.264 184.519 319.137 175.985 316.048C184.323 329.862 176.243 347.882 179.61 363.662C180.698 368.575 182.878 373.181 185.987 377.138C189.097 381.095 193.058 384.301 197.575 386.519L205.273 396.057C209.309 389.006 211.768 381.164 212.481 373.072C213.194 364.979 212.144 356.828 209.404 349.18C207.824 344.904 205.712 340.845 203.118 337.098C198.543 342.476 193.201 347.502 193.201 347.502Z" fill="#F2F2F2"/>
<path d="M165.308 349.613L162.48 332.564C154.021 329.273 144.887 328.097 135.87 329.138C149.494 337.784 150.299 357.516 160.35 370.138C163.515 374.051 167.52 377.201 172.068 379.355C176.616 381.51 181.591 382.613 186.623 382.584L197.767 387.688C198.235 379.577 196.938 371.462 193.967 363.9C190.996 356.339 186.422 349.511 180.558 343.888C177.237 340.766 173.537 338.075 169.543 335.878C167.847 342.731 165.308 349.613 165.308 349.613Z" fill="#F2F2F2"/>
<path d="M331.338 391.817L323.523 391.817L319.806 361.678L331.339 361.678L331.338 391.817Z" fill="#FFB6B6"/>
<path d="M333.33 399.391L308.135 399.39V399.072C308.135 396.471 309.168 393.977 311.008 392.138C312.847 390.299 315.341 389.265 317.942 389.265H317.942L322.544 385.774L331.131 389.266L333.331 389.266L333.33 399.391Z" fill="#2F2E41"/>
<path d="M457.561 363.316L452.233 369.032L427.651 351.202L435.514 342.766L457.561 363.316Z" fill="#FFB6B6"/>
<path d="M464.46 367.022L447.281 385.453L447.048 385.236C445.146 383.462 444.026 381.006 443.934 378.407C443.843 375.807 444.788 373.278 446.561 371.376L446.561 371.375L447.145 365.628L455.554 361.727L457.053 360.118L464.46 367.022Z" fill="#2F2E41"/>
<path d="M445.999 346.378L437.74 363.651L387.024 330.072L379.645 320.019L355.454 287.058L345.62 302.661L338.777 318.973C336.547 320.428 334.668 322.359 333.276 324.629C331.883 326.898 331.012 329.448 330.725 332.095L330.412 334.983L334.736 373.852L318.302 378.899L308.863 326.682L311.948 315.368L315.125 299.485L331.118 249.295H373.915L398.462 301.545L400.256 312.191L407.216 320.179L445.999 346.378Z" fill="#2F2E41"/>
<path d="M357.058 167.181L364.262 172.666L372.951 175.336C372.951 175.336 376.543 225.862 379.779 229.098C383.016 232.335 380.097 232.422 380.747 236.626C381.397 240.83 382.978 249.449 382.978 249.449C361.132 261.013 342.298 261.323 327.169 247.791C326.976 246.954 327.074 246.076 327.448 245.302C327.822 244.529 328.449 243.906 329.225 243.538C332.041 242.044 326.63 235.071 328.931 233.905C331.232 232.739 327.995 222.625 327.995 222.625L330.118 201.523L328.441 198.15L332.534 177.509L339.637 174.915L342.475 168.079L357.058 167.181Z" fill="#3F3D56"/>
<path d="M361.571 256.981C361.539 256.068 361.707 255.16 362.064 254.319C362.421 253.479 362.957 252.727 363.636 252.116C364.315 251.506 365.12 251.052 365.993 250.786C366.866 250.52 367.787 250.448 368.691 250.577L378.845 230.842L384.501 240.892L373.992 258.092C373.676 259.596 372.819 260.932 371.583 261.847C370.348 262.761 368.819 263.19 367.288 263.053C365.757 262.916 364.33 262.223 363.276 261.103C362.222 259.984 361.616 258.517 361.571 256.981H361.571Z" fill="#FFB6B6"/>
<path d="M378.67 252.153L400.448 218.401L400.376 218.245C400.294 218.067 395.362 207.417 390.584 197.661C389.848 196.159 389.116 194.678 388.405 193.26C388.099 192.648 387.797 192.048 387.499 191.462C385.492 187.505 383.739 184.235 382.692 182.682C380.377 179.169 376.93 176.555 372.924 175.272L372.823 175.246L372.727 175.286C370.768 176.113 369.148 177.583 368.136 179.453C367.124 181.324 366.78 183.484 367.16 185.576C369.049 195.67 373.258 205.186 379.455 213.374L382.986 218.028L370.717 244.701L378.67 252.153Z" fill="#3F3D56"/>
<path d="M303.784 122.775C304.384 123.463 304.825 124.275 305.077 125.153C305.329 126.03 305.386 126.952 305.243 127.854C305.1 128.756 304.761 129.615 304.25 130.372C303.739 131.129 303.069 131.764 302.285 132.233L306.825 153.958L296.102 149.712L293.435 129.733C292.734 128.365 292.558 126.788 292.942 125.299C293.326 123.811 294.243 122.515 295.519 121.657C296.794 120.8 298.34 120.44 299.864 120.646C301.387 120.852 302.782 121.609 303.784 122.775H303.784Z" fill="#FFB6B6"/>
<path d="M293.541 137.292L297.877 177.226L298.031 177.301C298.158 177.363 303.651 180.058 310.395 183.267C311.533 183.809 311.37 186.154 312.558 186.714C313.377 187.1 315.54 185.699 316.368 186.086C323.739 189.533 331.192 192.885 334.163 193.793C338.173 195.064 342.497 194.925 346.417 193.399L346.512 193.355L346.561 193.264C347.563 191.387 347.895 189.226 347.503 187.135C347.111 185.045 346.019 183.15 344.406 181.764C336.583 175.113 327.32 170.37 317.35 167.912L311.677 166.52L304.412 138.073L293.541 137.292Z" fill="#3F3D56"/>
<path d="M349.377 164.918C357.247 164.918 363.627 158.538 363.627 150.667C363.627 142.797 357.247 136.417 349.377 136.417C341.506 136.417 335.126 142.797 335.126 150.667C335.126 158.538 341.506 164.918 349.377 164.918Z" fill="#FFB6B6"/>
<path d="M335.228 141.118C336.4 137.709 342.234 135.344 351.692 135.015C361.149 134.687 363.548 145.832 363.548 145.832C369.862 150.954 356.806 164.666 356.175 164.172L356.459 161.596C356.929 157.328 358.927 153.999 356.386 149.552L353.946 149.58C350.794 150.186 347.643 150.792 344.491 151.398L348.222 148.113L348.117 147.95C346.53 148.777 344.803 149.301 343.024 149.496C341.018 149.614 338.826 148.816 337.866 147.052C337.609 146.567 337.452 146.035 337.405 145.489C334.7 146.569 333.464 149.903 333.464 149.903C333.464 149.903 334.056 144.528 335.228 141.118Z" fill="#2F2E41"/>
<path d="M57.4152 141.973C57.2219 141.728 57.0136 141.495 56.7917 141.275C56.846 141.201 56.9002 141.119 56.9544 141.045L57.4152 141.973Z" fill="#2F2E41"/>
<path d="M60.1866 199.288C57.8555 203.429 53.2001 205.739 48.5854 206.871C43.402 208.229 37.9437 208.123 32.8167 206.566C32.1662 206.356 31.5156 206.112 30.8854 205.841C31.1884 205.036 31.4286 204.209 31.6037 203.368C31.8396 202.229 31.9577 201.068 31.9561 199.905C31.4426 200.907 30.7775 201.823 29.9841 202.622C29.3722 203.265 28.6771 203.823 27.9173 204.282C25.5608 202.852 23.5203 200.957 21.9202 198.712C22.0218 198.462 22.1235 198.211 22.2184 197.96C22.7105 196.65 23.1001 195.305 23.3839 193.935C23.7689 192.083 23.962 190.196 23.9599 188.304C23.1244 189.934 22.0408 191.424 20.7479 192.722C20.3602 193.137 19.9484 193.528 19.5146 193.894C18.8428 191.854 18.583 189.7 18.7505 187.559C18.9181 185.417 19.5095 183.33 20.4904 181.419C23.1738 176.458 28.3781 173.511 33.0132 170.305C37.655 167.1 42.2969 162.763 42.6899 157.132C42.9542 153.331 41.1924 149.522 41.8971 145.782C42.1935 144.204 42.9171 142.738 43.989 141.544C45.061 140.349 46.4402 139.472 47.9764 139.007C49.5127 138.542 51.147 138.508 52.7014 138.908C54.2557 139.308 55.6705 140.127 56.7916 141.275C54.1624 145.002 51.5467 148.858 50.4828 153.29C49.3986 157.803 50.2863 163.095 53.8439 166.084C55.0637 167.114 56.5613 167.846 57.5032 169.133C58.7568 170.841 58.7636 173.118 58.9669 175.218C59.3735 179.305 60.7085 183.235 61.4267 187.28C62.1518 191.319 62.1925 195.704 60.1866 199.288Z" fill="#2F2E41"/>
<path d="M12.4006 367.333L18.5854 372.111L39.9597 350.53L30.8316 343.478L12.4006 367.333Z" fill="#A0616A"/>
<path d="M12.6637 362.664L22.8909 369.635L19.6544 373.823L23.9889 387.424C24.2031 388.096 24.197 388.819 23.9714 389.487C23.7458 390.155 23.3125 390.733 22.735 391.137C22.1574 391.542 21.4657 391.751 20.7608 391.734C20.0559 391.718 19.3748 391.476 18.817 391.045L7.17788 382.051L8.37312 376.358L4.38839 379.896L0 376.505L12.6637 362.664Z" fill="#2F2E41"/>
<path d="M43.7776 154.013C43.7767 156.429 44.369 158.809 45.5025 160.943C46.6359 163.077 48.2759 164.9 50.2785 166.252C52.2811 167.604 54.585 168.444 56.988 168.698C59.391 168.952 61.8196 168.613 64.0606 167.709C66.3017 166.805 68.2866 165.365 69.8412 163.515C71.3958 161.665 72.4725 159.462 72.9768 157.099C73.4811 154.736 73.3975 152.285 72.7335 149.961C72.0695 147.638 70.8453 145.513 69.1684 143.773L69.0976 143.703C68.9795 143.579 68.8614 143.455 68.7374 143.336C68.7366 143.337 68.7358 143.336 68.7351 143.336C68.7344 143.336 68.7337 143.335 68.7332 143.335C68.7326 143.334 68.7322 143.334 68.7319 143.333C68.7316 143.332 68.7315 143.331 68.7315 143.331C68.5779 143.189 68.4244 143.047 68.265 142.911C65.6669 140.632 62.0152 138.158 58.2892 138.158C50.1346 138.158 43.7776 145.858 43.7776 154.013Z" fill="#2F2E41"/>
<path d="M127.92 146.432C127.99 147.219 127.887 148.012 127.618 148.755C127.349 149.499 126.92 150.174 126.362 150.734C125.804 151.293 125.13 151.724 124.387 151.995C123.644 152.266 122.851 152.371 122.064 152.302L85.5091 185.307L79.2185 175.372L117.129 146.053C117.332 144.737 118.01 143.542 119.036 142.694C120.061 141.845 121.362 141.403 122.692 141.449C124.022 141.496 125.289 142.029 126.253 142.947C127.216 143.865 127.809 145.105 127.92 146.432V146.432Z" fill="#A0616A"/>
<path d="M69.8862 195.269C69.8862 195.269 71.2463 197.781 75.8922 193.902C79.6116 190.797 97.431 177.316 101.27 171.792C102.147 172.139 103.114 172.185 104.019 171.922C104.925 171.659 105.717 171.102 106.271 170.34L95.7529 161.128C92.6058 161.49 92.6733 163.604 93.001 164.805L85.0668 168.399L64.5784 181.493L68.8708 193.471L69.8862 195.269Z" fill="#5F6FEE"/>
<path d="M50.0376 218.413L49.2714 222.061L48.6208 235.52L77.2632 237.094L76.3737 216.394L73.5974 211.833L50.0376 218.413Z" fill="#A0616A"/>
<path d="M62.1768 169.807C69.0133 169.807 74.5554 164.265 74.5554 157.428C74.5554 150.591 69.0133 145.049 62.1768 145.049C55.3402 145.049 49.7981 150.591 49.7981 157.428C49.7981 164.265 55.3402 169.807 62.1768 169.807Z" fill="#A0616A"/>
<path d="M40.1999 203.086L40.1238 192.797C40.122 189.094 41.3749 185.5 43.6781 182.602C45.9812 179.703 49.1987 177.67 52.8057 176.835L52.8524 176.824L55.3001 173.526L65.2448 174.521L67.0675 178.246L74.2736 182.537L77.048 191.456C78.2514 192.258 79.277 193.299 80.0611 194.514C80.8452 195.729 81.371 197.093 81.6058 198.52C82.5478 204.536 78.3351 210.557 77.834 211.247L76.5429 218.518L48.4557 223.474L48.2277 223.503L40.1999 203.086Z" fill="#5F6FEE"/>
<path d="M77.3242 155.221C75.8804 156.136 74.3822 156.962 72.8382 157.695C71.2711 158.447 69.6319 159.04 67.9456 159.463C67.4632 158.405 66.8728 157.399 66.1838 156.461C66.3611 157.572 66.3656 158.703 66.1973 159.816C63.4023 160.267 60.5396 160.032 57.8555 159.131L55.5245 155.221L55.3483 159.585C53.417 159.938 51.4925 160.27 49.5612 160.615C49.446 160.629 49.3308 160.656 49.2224 160.676C48.0229 155.269 49.7238 149.312 53.5051 145.707C55.3825 143.936 57.7244 142.734 60.2581 142.243C62.7918 141.751 65.4132 141.989 67.8169 142.929C68.1218 143.051 68.4335 143.186 68.7317 143.329C68.7317 143.33 68.7318 143.33 68.7322 143.331C68.7325 143.332 68.733 143.333 68.7336 143.333C68.7343 143.334 68.735 143.335 68.7359 143.335C68.7367 143.335 68.7376 143.335 68.7385 143.335C68.9147 143.423 69.0637 143.634 69.2603 143.613C77.7172 142.671 77.9883 149.231 77.3242 155.221Z" fill="#2F2E41"/>
<path d="M56.7312 351.371L62.9255 356.137L84.2566 334.513L75.1145 327.479L56.7312 351.371Z" fill="#A0616A"/>
<path d="M57.5466 347.134L67.7879 354.084L64.5598 358.279L68.9218 371.871C69.1374 372.542 69.1326 373.265 68.9084 373.934C68.6842 374.602 68.2521 375.181 67.6753 375.587C67.0986 375.992 66.4073 376.203 65.7024 376.187C64.9975 376.172 64.3159 375.932 63.7572 375.502L52.0999 366.532L53.2837 360.837L49.3061 364.382L44.9109 361L57.5466 347.134Z" fill="#2F2E41"/>
<path d="M36.6311 324.98L36.6308 324.899L39.5665 319.84L36.5688 313.255L36.4789 296.336L36.9648 293.796C37.6184 290.38 37.4282 286.856 36.4108 283.53L36.3561 273.232C36.2508 270.652 40.2474 268.383 39.3154 266.232C30.506 245.903 48.3111 230.395 48.4314 230.27L48.7952 229.892L50.7694 231.387L52.6484 231.39L78.0047 236.01L78.1878 236.351C79.1851 238.222 81.1098 244.67 81.224 247.588C82.4877 249.05 96.8825 265.707 98.1621 266.865C106.809 274.689 111.76 287.638 113.941 294.661C114.483 296.397 114.592 298.239 114.26 300.026C113.927 301.814 113.162 303.493 112.032 304.917L79.2962 340.773L70.4868 332.641L88.1997 300.364L86.9224 297.09C84.6306 296.667 82.5566 295.462 81.0541 293.68L77.4674 289.423C76.4744 288.248 75.8433 286.809 75.6507 285.283L73.4756 285.021L65.6842 276.841L60.2788 325.793L58.8092 329.66L33.2165 359.747L22.3743 352.971L36.6311 324.98Z" fill="#2F2E41"/>
<path d="M32.7227 114.786C32.231 115.405 31.881 116.124 31.6974 116.893C31.5138 117.662 31.5009 118.461 31.6598 119.236C31.8187 120.01 32.1455 120.74 32.6171 121.375C33.0887 122.009 33.6937 122.533 34.3894 122.908L26.2515 147L32.8965 172.531L43.6117 167.687L36.9996 148.43L41.9465 120.399C42.4996 119.188 42.5894 117.817 42.1989 116.544C41.8084 115.272 40.9648 114.187 39.8278 113.495C38.6908 112.803 37.3396 112.553 36.0301 112.79C34.7206 113.028 33.5438 113.738 32.7227 114.786Z" fill="#A0616A"/>
<path d="M42.531 193.568C42.531 193.568 40.0143 194.919 38.264 189.126C36.8628 184.488 27.3268 159.304 27.155 152.579C26.2318 152.388 25.3985 151.894 24.7864 151.177C24.1744 150.46 23.8183 149.56 23.7744 148.618L37.6243 146.701C40.0546 148.733 38.8365 150.462 37.9032 151.285L42.6203 159.275L52.4799 180.846L44.3675 192.623L42.531 193.568Z" fill="#5F6FEE"/>
<path d="M49.5586 160.614C50.9809 156.325 53.5312 152.498 56.9421 149.533C60.3529 146.569 64.4986 144.578 68.9442 143.768C68.9619 143.762 69.021 143.738 69.0978 143.703C69.145 143.673 69.2041 143.644 69.2631 143.614C69.0859 143.514 68.9147 143.425 68.7375 143.337C68.7368 143.337 68.736 143.336 68.7353 143.336C68.7345 143.336 68.7339 143.335 68.7333 143.335C68.7328 143.334 68.7324 143.334 68.7321 143.333C68.7318 143.332 68.7316 143.331 68.7317 143.331C68.5781 143.189 68.4246 143.047 68.2652 142.911L67.8164 142.929C67.8164 142.929 52.0445 140.431 49.5586 160.614Z" fill="#FD6584"/>
<path d="M253.072 298.555C254.794 295.968 253.775 292.264 250.797 290.283C247.819 288.302 244.009 288.793 242.288 291.38C240.566 293.967 241.585 297.671 244.563 299.652C247.541 301.634 251.351 301.143 253.072 298.555Z" fill="#F2F2F2"/>
<path d="M218.13 201.988C219.852 199.401 218.833 195.697 215.855 193.716C212.877 191.735 209.067 192.226 207.346 194.813C205.624 197.4 206.643 201.104 209.621 203.085C212.599 205.067 216.409 204.576 218.13 201.988Z" fill="#F2F2F2"/>
<path d="M364.252 350.651C365.973 348.063 364.954 344.36 361.976 342.378C358.998 340.397 355.188 340.888 353.467 343.476C351.746 346.063 352.764 349.767 355.742 351.748C358.721 353.729 362.53 353.238 364.252 350.651Z" fill="#F2F2F2"/>
<path d="M68.8324 39.9843C70.5537 37.397 69.5349 33.6934 66.5568 31.712C63.5787 29.7306 59.769 30.2218 58.0476 32.8091C56.3263 35.3964 57.3452 39.1 60.3233 41.0814C63.3014 43.0627 67.1111 42.5715 68.8324 39.9843Z" fill="#F2F2F2"/>
<path d="M206.695 9.48938C208.416 6.9021 207.397 3.19849 204.419 1.21712C201.441 -0.764244 197.631 -0.273064 195.91 2.31421C194.189 4.90149 195.207 8.60514 198.186 10.5865C201.164 12.5679 204.973 12.0767 206.695 9.48938Z" fill="#F2F2F2"/>
<path d="M141.448 265.338C143.169 262.751 142.151 259.047 139.173 257.066C136.194 255.084 132.385 255.575 130.663 258.163C128.942 260.75 129.961 264.454 132.939 266.435C135.917 268.416 139.727 267.925 141.448 265.338Z" fill="#E6E6E6"/>
<path d="M425.827 400H12.6891C12.4888 399.999 12.297 399.92 12.1556 399.778C12.0142 399.636 11.9348 399.444 11.9348 399.244C11.9348 399.043 12.0142 398.851 12.1556 398.709C12.297 398.568 12.4888 398.488 12.6891 398.487H425.827C426.028 398.487 426.22 398.567 426.362 398.709C426.504 398.851 426.584 399.043 426.584 399.244C426.584 399.444 426.504 399.637 426.362 399.778C426.22 399.92 426.028 400 425.827 400Z" fill="#CCCCCC"/>
<path d="M89.5842 148.765C86.109 148.755 82.7593 147.465 80.1756 145.141C77.5919 142.816 75.9554 139.622 75.5788 136.167L67.5134 61.2595C67.1171 57.5403 68.2123 53.8158 70.5587 50.9031C72.9051 47.9904 76.3111 46.1275 80.0294 45.7229L319.512 19.937C323.231 19.5406 326.956 20.6357 329.869 22.982C332.782 25.3284 334.645 28.7344 335.049 32.4528L343.115 107.36C343.511 111.079 342.416 114.804 340.069 117.717C337.723 120.629 334.317 122.492 330.598 122.897L330.564 122.581L330.598 122.897L91.1157 148.683C90.607 148.738 90.0958 148.765 89.5842 148.765Z" fill="#E6E6E6"/>
<path d="M316.874 23.4145C316.424 23.4147 315.975 23.4389 315.527 23.4871L84.679 48.3433C83.0649 48.5171 81.5008 49.0071 80.076 49.7854C78.6512 50.5637 77.3937 51.615 76.3752 52.8792C75.3567 54.1435 74.5972 55.596 74.1401 57.1538C73.683 58.7116 73.5371 60.3442 73.7109 61.9584L77.789 99.8322C78.4481 105.955 80.3068 111.888 83.259 117.292C86.2111 122.697 90.1988 127.467 94.9944 131.33C99.79 135.194 105.3 138.074 111.209 139.808C117.118 141.542 123.31 142.096 129.433 141.436L291.758 123.958C297.862 123.301 303.777 121.448 309.165 118.505C314.553 115.562 319.308 111.586 323.16 106.805C327.011 102.024 329.884 96.5311 331.612 90.6401C333.341 84.7491 333.893 78.5752 333.235 72.4711L329.142 34.4552C328.816 31.4271 327.384 28.6259 325.12 26.5885C322.856 24.5512 319.92 23.4209 316.874 23.4145V23.4145Z" fill="white"/>
<path d="M268.261 62.8303L139.237 76.7228C138.868 76.763 138.495 76.7302 138.139 76.626C137.782 76.5219 137.45 76.3485 137.161 76.1159C136.872 75.8833 136.631 75.596 136.453 75.2703C136.275 74.9447 136.163 74.5872 136.124 74.2182C136.084 73.8493 136.117 73.4761 136.222 73.12C136.327 72.764 136.5 72.432 136.733 72.1432C136.966 71.8543 137.254 71.6143 137.58 71.4367C137.906 71.2591 138.263 71.1475 138.632 71.1083L267.657 57.2158C268.025 57.1755 268.399 57.2084 268.755 57.3126C269.111 57.4167 269.443 57.59 269.732 57.8227C270.022 58.0553 270.262 58.3426 270.44 58.6682C270.618 58.9939 270.73 59.3514 270.77 59.7204C270.81 60.0893 270.776 60.4625 270.672 60.8186C270.567 61.1746 270.393 61.5066 270.16 61.7954C269.927 62.0843 269.639 62.3243 269.314 62.5019C268.988 62.6795 268.63 62.7911 268.261 62.8303Z" fill="#5F6FEE"/>
<path d="M270.116 80.0618L141.092 93.9543C140.348 94.0344 139.602 93.8155 139.019 93.3458C138.436 92.876 138.063 92.1938 137.983 91.4493C137.903 90.7047 138.122 89.9588 138.591 89.3757C139.061 88.7925 139.743 88.4199 140.488 88.3397L269.512 74.4472C270.256 74.367 271.002 74.5859 271.586 75.0557C272.169 75.5255 272.541 76.2077 272.621 76.9522C272.702 77.6967 272.483 78.4426 272.013 79.0258C271.543 79.6089 270.861 79.9816 270.116 80.0618Z" fill="#5F6FEE"/>
<path d="M157.983 109.566L142.948 111.185C142.203 111.265 141.457 111.047 140.874 110.577C140.291 110.107 139.918 109.425 139.838 108.68C139.758 107.936 139.977 107.19 140.447 106.607C140.916 106.024 141.598 105.651 142.343 105.571L157.379 103.952C157.748 103.912 158.121 103.944 158.477 104.049C158.833 104.153 159.166 104.326 159.455 104.559C159.744 104.791 159.984 105.079 160.162 105.404C160.34 105.73 160.452 106.087 160.492 106.456C160.532 106.825 160.499 107.199 160.394 107.555C160.289 107.911 160.116 108.243 159.883 108.531C159.65 108.82 159.362 109.06 159.036 109.238C158.71 109.415 158.352 109.527 157.983 109.566Z" fill="#5F6FEE"/>
<path d="M84.5075 64.4202C87.3145 64.4202 89.59 62.1447 89.59 59.3377C89.59 56.5308 87.3145 54.2553 84.5075 54.2553C81.7006 54.2553 79.425 56.5308 79.425 59.3377C79.425 62.1447 81.7006 64.4202 84.5075 64.4202Z" fill="#3F3D56"/>
<path d="M311.948 39.0078C314.755 39.0078 317.031 36.7323 317.031 33.9253C317.031 31.1184 314.755 28.8429 311.948 28.8429C309.141 28.8429 306.866 31.1184 306.866 33.9253C306.866 36.7323 309.141 39.0078 311.948 39.0078Z" fill="#3F3D56"/>
<path d="M243.235 143.349C242.768 142.939 242.398 142.43 242.153 141.859C241.907 141.288 241.792 140.669 241.815 140.048C242.07 132.666 240.854 125.307 238.238 118.399C238.016 117.818 237.927 117.195 237.976 116.576C238.025 115.956 238.211 115.355 238.522 114.817C238.819 114.299 239.226 113.853 239.714 113.509C240.203 113.166 240.76 112.933 241.348 112.828C247.255 109.263 253.311 108.262 259.351 109.854C260.325 109.711 261.318 109.919 262.153 110.442C262.987 110.965 263.607 111.768 263.902 112.707C266.348 120.646 267.708 128.879 267.946 137.183C267.969 138.179 267.631 139.15 266.996 139.917C266.36 140.685 265.469 141.197 264.486 141.36L246.613 144.313C246.013 144.413 245.4 144.379 244.815 144.212C244.231 144.045 243.691 143.75 243.235 143.349Z" fill="#5F6FEE"/>
<path d="M244.823 121.84L259.866 119.355C259.99 119.335 260.109 119.29 260.215 119.224C260.322 119.158 260.414 119.072 260.487 118.97C260.56 118.868 260.613 118.753 260.641 118.631C260.67 118.509 260.674 118.383 260.653 118.259C260.633 118.135 260.588 118.017 260.522 117.911C260.456 117.804 260.369 117.712 260.267 117.639C260.165 117.566 260.05 117.514 259.928 117.486C259.806 117.458 259.679 117.454 259.556 117.474L244.512 119.96C244.263 120.002 244.041 120.14 243.894 120.346C243.748 120.551 243.688 120.806 243.73 121.055C243.771 121.304 243.909 121.526 244.114 121.674C244.319 121.821 244.574 121.881 244.823 121.84Z" fill="white"/>
<path d="M246.066 129.362L261.109 126.877C261.358 126.835 261.581 126.697 261.728 126.491C261.876 126.286 261.935 126.03 261.894 125.781C261.853 125.532 261.714 125.309 261.509 125.162C261.303 125.015 261.048 124.955 260.798 124.996L245.755 127.482C245.631 127.502 245.513 127.546 245.406 127.612C245.3 127.678 245.207 127.764 245.134 127.866C245.061 127.968 245.009 128.083 244.98 128.205C244.952 128.327 244.947 128.454 244.968 128.577C244.988 128.701 245.033 128.82 245.099 128.926C245.165 129.032 245.252 129.125 245.354 129.197C245.456 129.27 245.571 129.322 245.693 129.351C245.815 129.379 245.942 129.383 246.066 129.362Z" fill="white"/>
<path d="M247.308 136.884L262.352 134.398C262.601 134.357 262.824 134.219 262.971 134.013C263.118 133.808 263.178 133.552 263.137 133.303C263.095 133.053 262.957 132.831 262.751 132.684C262.546 132.536 262.29 132.477 262.041 132.518L246.998 135.003C246.874 135.024 246.756 135.068 246.65 135.134C246.543 135.2 246.451 135.287 246.378 135.389C246.305 135.49 246.253 135.605 246.225 135.727C246.196 135.849 246.192 135.975 246.213 136.099C246.233 136.222 246.278 136.341 246.344 136.447C246.41 136.553 246.496 136.645 246.598 136.718C246.7 136.791 246.815 136.843 246.937 136.872C247.058 136.9 247.185 136.904 247.308 136.884Z" fill="white"/>
</g>
<defs>
<clipPath id="clip0_4204_4604">
<rect width="464.46" height="400" fill="white"/>
</clipPath>
</defs>
</svg>
