<svg width="554" height="400" viewBox="0 0 554 400" fill="none" xmlns="http://www.w3.org/2000/svg">
<g clip-path="url(#clip0_4204_4493)">
<path d="M393.234 293.377H94.8971C92.2388 293.374 89.6903 292.341 87.8107 290.505C85.931 288.669 84.8737 286.18 84.8706 283.584V46.3169C84.8737 43.7206 85.931 41.2314 87.8107 39.3955C89.6903 37.5597 92.2388 36.5269 94.8971 36.5239H393.234C395.892 36.5269 398.44 37.5597 400.32 39.3955C402.2 41.2314 403.257 43.7206 403.26 46.3169V283.584C403.257 286.18 402.2 288.669 400.32 290.505C398.44 292.341 395.892 293.374 393.234 293.377Z" fill="#E6E6E6"/>
<path d="M101.662 43.4944C99.101 43.4973 96.6462 44.4921 94.8356 46.2606C93.025 48.0291 92.0065 50.4269 92.0037 52.9278V276.979C92.0067 279.48 93.0252 281.877 94.8358 283.646C96.6463 285.414 99.1011 286.409 101.662 286.411H305.861C329.793 286.385 352.738 277.088 369.66 260.559C386.583 244.031 396.102 221.621 396.129 198.246V52.9278C396.126 50.4269 395.107 48.0291 393.297 46.2606C391.486 44.4921 389.031 43.4973 386.471 43.4944L101.662 43.4944Z" fill="white"/>
<path d="M338.832 144.26H284.736C283.608 144.259 282.526 143.82 281.728 143.041C280.931 142.262 280.482 141.206 280.481 140.104V113.806C280.482 112.704 280.931 111.648 281.728 110.869C282.526 110.089 283.608 109.651 284.736 109.65H338.832C339.96 109.651 341.042 110.089 341.839 110.869C342.637 111.648 343.086 112.704 343.087 113.806C346.434 123.112 346.91 131.955 343.087 140.104C343.086 141.206 342.637 142.262 341.839 143.041C341.042 143.82 339.96 144.259 338.832 144.26Z" fill="#E6E6E6"/>
<path d="M332.423 141.719H286.463C285.505 141.717 284.586 141.345 283.908 140.683C283.23 140.021 282.849 139.123 282.848 138.187V115.845C282.849 114.909 283.23 114.011 283.908 113.349C284.586 112.687 285.505 112.315 286.463 112.314H332.423C333.382 112.315 334.301 112.687 334.978 113.349C335.656 114.011 336.037 114.909 336.038 115.845C339.14 123.802 339.639 131.331 336.038 138.187C336.037 139.123 335.656 140.021 334.978 140.683C334.301 141.345 333.382 141.717 332.423 141.719Z" fill="white"/>
<path d="M329.944 158.035H293.503C292.432 158.037 291.403 157.623 290.643 156.883C289.884 156.144 289.457 155.141 289.455 154.094C289.453 153.047 289.876 152.042 290.633 151.3C291.389 150.558 292.416 150.14 293.488 150.138H329.944C331.015 150.14 332.042 150.557 332.798 151.297C333.555 152.037 333.98 153.041 333.98 154.087C333.98 155.133 333.555 156.136 332.798 156.876C332.042 157.616 331.015 158.033 329.944 158.035Z" fill="#E6E6E6"/>
<path d="M305.443 118.346C305.024 118.348 304.622 118.511 304.326 118.801C304.03 119.091 303.863 119.483 303.862 119.893V136.631C303.862 136.901 303.935 137.167 304.073 137.401C304.211 137.635 304.409 137.83 304.649 137.966C304.888 138.102 305.159 138.174 305.436 138.175C305.713 138.176 305.985 138.106 306.225 137.972L321.352 129.548C321.595 129.413 321.797 129.217 321.937 128.981C322.077 128.744 322.151 128.476 322.15 128.203C322.149 127.93 322.074 127.661 321.933 127.426C321.791 127.19 321.588 126.996 321.344 126.862L306.219 118.547C305.982 118.416 305.715 118.347 305.443 118.346Z" fill="#E6E6E6"/>
<path d="M526.124 367.975C525.29 366.939 524.157 366.171 522.871 365.769C521.586 365.368 520.207 365.352 518.912 365.724L518.629 365.806L516.089 375.491C515.708 374.047 514.894 370.789 514.381 367.599L514.337 367.336L514.085 367.444C511.429 368.59 508.933 370.059 506.655 371.817C502.62 374.979 499.338 378.961 497.037 383.487C494.736 388.012 493.472 392.973 493.333 398.024L493.328 398.21L493.324 398.326L493.66 398.21L500.877 395.69C504.072 395.965 507.29 395.54 510.295 394.445C513.3 393.351 516.018 391.614 518.248 389.363C521.164 386.36 523.164 382.496 525.098 378.758C525.664 377.669 526.244 376.545 526.837 375.465C527.498 374.29 527.784 372.948 527.657 371.613C527.53 370.278 526.996 369.011 526.124 367.975Z" fill="#F2F2F2"/>
<path d="M341.83 120.997C341.975 121.73 342.283 122.423 342.731 123.028C343.18 123.632 343.759 124.133 344.428 124.496C345.096 124.858 345.838 125.073 346.6 125.125C347.363 125.177 348.128 125.065 348.842 124.797L370.41 149.303L373.141 140.256L351.757 117.836C351.217 116.695 350.267 115.787 349.087 115.284C347.907 114.782 346.58 114.72 345.356 115.109C344.132 115.499 343.097 116.314 342.448 117.399C341.798 118.484 341.578 119.764 341.83 120.997L341.83 120.997Z" fill="#FFB8B8"/>
<path d="M428.756 392.351H421.618L418.222 365.461H428.757L428.756 392.351Z" fill="#FFB6B6"/>
<path d="M428.565 390.074L420.944 387.047L420.726 386.959L416.518 390.074C414.143 390.075 411.864 390.997 410.184 392.637C408.504 394.278 407.56 396.503 407.56 398.824V399.108H430.574V390.074H428.565Z" fill="#2F2E41"/>
<path d="M479.674 392.351H472.536L469.141 365.461H479.675L479.674 392.351Z" fill="#FFB6B6"/>
<path d="M479.483 390.074L471.862 387.047L471.644 386.959L467.437 390.074C465.061 390.075 462.782 390.997 461.102 392.637C459.423 394.278 458.479 396.503 458.478 398.824V399.108H481.492V390.074H479.483Z" fill="#2F2E41"/>
<path d="M462.828 231.774C462.828 231.774 471.781 240.871 471.781 248.346C471.781 255.82 469.543 266.084 471.781 268.33C474.019 270.576 476.817 273.309 473.459 276.588C470.102 279.867 468.424 281.507 470.662 283.693C472.9 285.879 471.781 324.135 471.781 324.135L483.531 375.507H468.728L449.959 324.135L444.923 281.507L428.637 322.495L430.435 375.948L414.959 375.507L408.552 318.669C408.552 318.669 418.065 264.603 416.386 263.218C414.707 261.832 416.386 259.035 416.386 259.035L420.862 238.332L462.828 231.774Z" fill="#2F2E41"/>
<path d="M445.3 167.274C445.3 167.274 448.344 155.558 434.319 152.199C420.295 148.84 380.206 144.524 380.206 144.524L359.946 123.527L353.081 133.264L375.793 160.831L429.607 171.627L445.3 167.274Z" fill="#3F3D56"/>
<path d="M356.417 132.547C357.046 131.75 357.539 130.86 357.875 129.909L360.78 122.936L360.026 122.905C358.982 122.713 357.909 122.739 356.876 122.981C355.844 123.222 354.875 123.675 354.033 124.308C353.192 124.94 352.497 125.74 351.994 126.653C351.491 127.567 351.192 128.574 351.115 129.609C351.02 130.503 351.184 131.406 351.59 132.214C351.796 132.615 352.097 132.962 352.467 133.227C352.837 133.492 353.267 133.668 353.72 133.74C354.234 133.767 354.748 133.672 355.217 133.465C355.687 133.257 356.098 132.942 356.417 132.547Z" fill="#E6E6E6"/>
<path d="M418.005 241.124L416.327 253.009C416.327 253.009 419.684 256.531 421.363 256.09C423.041 255.65 429.196 253.088 429.196 253.088C429.196 253.088 436.47 256.971 440.387 257.411C444.304 257.851 465.007 255.21 465.566 253.89C466.126 252.569 472.629 247.4 472.629 247.4L470.043 232.32L418.005 241.124Z" fill="#E6E6E6"/>
<path d="M472.521 199.546C472.521 199.546 471.1 211.006 472.219 212.061C473.338 213.11 471.1 219.751 468.862 224.123C466.624 228.495 470.541 229.041 470.541 232.32C470.541 235.599 472.219 247.623 472.219 247.623C472.219 247.623 454.874 248.716 452.076 245.983C449.278 243.251 444.802 245.437 438.647 251.448C432.492 257.46 419.124 252.541 416.327 249.809C413.529 247.076 418.503 237.239 420.182 235.332C421.861 233.424 418.565 235.632 416.886 229.588C415.208 223.543 418.503 224.123 421.301 221.39C424.099 218.658 421.301 213.739 419.063 208.82C416.825 203.902 418.503 167.285 418.503 158.541C418.503 149.797 430.813 148.704 430.813 148.704L435.687 142.72L439.268 138.32L446.284 138.047L446.469 138.041L453.256 137.774L456.552 141.523L463.826 149.797L472.219 151.437C478.934 153.623 477.255 167.285 477.255 167.285L472.521 199.546Z" fill="#3F3D56"/>
<path d="M445.938 135.676C453.882 135.676 460.321 129.387 460.321 121.628C460.321 113.869 453.882 107.58 445.938 107.58C437.995 107.58 431.555 113.869 431.555 121.628C431.555 129.387 437.995 135.676 445.938 135.676Z" fill="#FFB6B6"/>
<path d="M462.615 116.902C458.659 114.532 459.166 108.336 455.354 106.173C453.46 105.106 451.329 104.502 449.145 104.413C446.96 104.323 444.785 104.75 442.806 105.658C440.121 104.536 436.904 105.432 434.757 107.457C432.609 109.483 431.446 112.472 431.103 115.477C430.856 118.497 431.078 121.536 431.762 124.491C431.975 123.304 432.188 122.116 432.402 120.929L443.741 118.509C442.737 119.39 441.733 120.27 440.729 121.151C445.865 122.293 451.253 121.47 455.786 118.851C460.722 121.013 459.827 125.867 455.494 132.309C457.173 135.041 467.123 119.602 462.615 116.902Z" fill="#2F2E41"/>
<path d="M456.552 141.523C456.52 141.548 456.486 141.572 456.451 141.594C455.266 142.284 453.909 142.643 452.529 142.632C450.723 142.779 448.929 142.23 447.532 141.102C446.799 140.424 443.884 141.856 441.97 142.649C439.963 143.461 437.713 143.486 435.687 142.72L439.268 138.32L445.17 137.042H446.643L453.256 137.774L456.552 141.523Z" fill="#E6E6E6"/>
<path d="M553.127 399.779L352.916 400C352.8 400.001 352.686 399.979 352.579 399.936C352.473 399.894 352.376 399.831 352.294 399.752C352.212 399.673 352.147 399.579 352.102 399.475C352.058 399.371 352.034 399.26 352.034 399.148C352.033 399.035 352.055 398.924 352.099 398.819C352.142 398.715 352.206 398.62 352.287 398.54C352.368 398.461 352.465 398.397 352.571 398.353C352.677 398.31 352.791 398.287 352.906 398.286H352.916L553.127 398.065C553.359 398.066 553.581 398.157 553.745 398.318C553.909 398.478 554 398.696 554 398.922C554 399.149 553.909 399.366 553.745 399.526C553.581 399.687 553.359 399.778 553.127 399.779Z" fill="#CACACA"/>
<path d="M313.401 112.037H311.928V9.10358H369.878V10.5428H313.401V112.037Z" fill="#3F3D56"/>
<path d="M414.947 0H375.9C373.359 0 370.923 0.985589 369.127 2.73994C367.331 4.4943 366.322 6.8737 366.322 9.35474C366.322 11.8358 367.331 14.2152 369.127 15.9695C370.923 17.7239 373.359 18.7095 375.9 18.7095H414.947C417.487 18.7095 419.924 17.7239 421.72 15.9695C423.516 14.2152 424.525 11.8358 424.525 9.35474C424.525 6.8737 423.516 4.4943 421.72 2.73994C419.924 0.985589 417.487 0 414.947 0Z" fill="#5F6FEE"/>
<path d="M311.809 121.453C316.67 121.453 320.611 117.605 320.611 112.857C320.611 108.11 316.67 104.261 311.809 104.261C306.949 104.261 303.008 108.11 303.008 112.857C303.008 117.605 306.949 121.453 311.809 121.453Z" fill="#5F6FEE"/>
<path d="M205.754 145.158L244.364 136.432L255.447 133.927C256.833 133.613 256.257 131.529 254.87 131.842L216.26 140.569L205.177 143.074C203.791 143.387 204.367 145.472 205.754 145.158H205.754Z" fill="#F2F2F2"/>
<path d="M245.624 122.432L266.293 131.719C266.999 131.957 267.659 132.306 268.249 132.753C268.82 133.299 268.404 133.823 267.939 134.299C266.548 135.568 265.079 136.752 263.539 137.846L254.733 144.838C253.628 145.716 255.188 147.248 256.283 146.378L263.953 140.288L267.787 137.243C268.874 136.38 270.196 135.5 270.633 134.125C271.55 131.238 267.93 130.09 265.919 129.186L256.917 125.142L246.749 120.573C245.468 119.997 244.332 121.852 245.624 122.432Z" fill="#F2F2F2"/>
<path d="M530.859 193.127C527.177 190.689 522.703 189.783 518.331 189.476C513.361 189.211 508.38 189.217 503.41 189.493C498.248 189.692 493.097 190.057 487.956 190.587C482.822 191.118 477.71 191.813 472.619 192.673C468.061 193.366 463.551 194.331 459.114 195.561C454.913 196.696 450.957 198.562 447.435 201.069C444.343 203.34 441.965 206.413 440.572 209.938C439.204 213.244 438.971 216.894 439.909 220.34C440.409 222.014 441.264 223.567 442.42 224.896C443.755 226.354 445.337 227.577 447.097 228.513C450.75 230.55 454.888 231.775 458.192 234.383C459.063 235.065 459.858 235.836 460.561 236.683C461.039 237.339 461.699 237.846 462.464 238.145C463.188 238.393 463.972 238.425 464.715 238.238C465.458 238.051 466.128 237.654 466.64 237.095C467.302 236.211 467.854 235.253 468.284 234.241L470.027 230.957C470.143 230.67 470.289 230.394 470.462 230.136C470.593 229.984 470.359 230.139 470.404 230.099C470.428 230.077 470.479 230.078 470.507 230.06C470.651 229.99 470.802 229.934 470.957 229.892C472.569 229.291 474.189 228.71 475.815 228.147C481.819 226.057 487.895 224.13 494.068 222.57C497.244 221.738 500.465 221.08 503.716 220.599C507.927 220.013 512.202 220.081 516.432 219.68C520.987 219.249 525.686 218.349 529.592 215.899C532.822 213.983 535.31 211.074 536.666 207.629C537.255 205.987 537.456 204.237 537.256 202.509C536.749 198.598 534.133 195.296 530.859 193.127Z" fill="#E6E6E6"/>
<path d="M523.323 195.325C519.995 193.121 515.953 192.303 512.001 192.025C507.51 191.786 503.009 191.791 498.518 192.04C493.853 192.221 489.198 192.55 484.552 193.029C479.913 193.509 475.293 194.137 470.693 194.914C466.574 195.541 462.498 196.412 458.488 197.523C454.692 198.549 451.117 200.236 447.934 202.501C445.14 204.554 442.992 207.33 441.732 210.516C440.496 213.503 440.286 216.802 441.134 219.916C441.585 221.429 442.358 222.832 443.402 224.033C444.609 225.351 446.039 226.456 447.629 227.301C450.93 229.142 454.67 230.249 457.656 232.606C458.443 233.223 459.161 233.92 459.796 234.685C460.228 235.277 460.825 235.736 461.516 236.006C462.171 236.23 462.878 236.259 463.55 236.09C464.222 235.921 464.827 235.562 465.29 235.057C465.888 234.258 466.386 233.392 466.775 232.478L468.35 229.51C468.455 229.251 468.587 229.002 468.744 228.768C468.862 228.631 468.651 228.771 468.691 228.735C468.713 228.715 468.759 228.716 468.784 228.7C468.914 228.636 469.051 228.585 469.191 228.547C470.648 228.005 472.111 227.479 473.581 226.971C479.007 225.082 484.498 223.341 490.075 221.931C492.946 221.179 495.857 220.585 498.795 220.15C502.6 219.62 506.463 219.682 510.286 219.32C514.402 218.93 518.648 218.117 522.178 215.903C525.096 214.171 527.344 211.543 528.571 208.43C529.102 206.946 529.285 205.364 529.104 203.802C528.645 200.268 526.281 197.284 523.323 195.325Z" fill="white"/>
<path d="M516.353 199.304L462.128 209.072C461.973 209.101 461.813 209.1 461.659 209.069C461.504 209.037 461.357 208.976 461.227 208.889C461.097 208.803 460.985 208.691 460.899 208.562C460.812 208.433 460.753 208.289 460.724 208.137C460.695 207.986 460.696 207.83 460.729 207.679C460.762 207.528 460.824 207.385 460.914 207.258C461.003 207.131 461.117 207.022 461.25 206.938C461.382 206.854 461.53 206.797 461.685 206.769L461.692 206.768L515.918 196.999C516.073 196.971 516.232 196.973 516.386 197.006C516.54 197.038 516.686 197.099 516.816 197.186C516.946 197.274 517.057 197.385 517.142 197.514C517.228 197.643 517.287 197.788 517.316 197.939C517.344 198.09 517.342 198.246 517.309 198.396C517.276 198.547 517.213 198.689 517.124 198.816C517.034 198.943 516.92 199.051 516.788 199.135C516.656 199.219 516.508 199.276 516.353 199.304V199.304Z" fill="#E6E6E6"/>
<path d="M517.689 206.377L463.463 216.146C463.308 216.174 463.149 216.173 462.994 216.142C462.84 216.11 462.693 216.049 462.563 215.963C462.432 215.876 462.321 215.765 462.234 215.635C462.148 215.506 462.088 215.362 462.059 215.21C462.03 215.059 462.032 214.903 462.065 214.752C462.097 214.602 462.16 214.458 462.249 214.331C462.339 214.204 462.453 214.096 462.585 214.012C462.718 213.928 462.866 213.87 463.021 213.842L463.028 213.841L517.254 204.072C517.409 204.045 517.568 204.047 517.722 204.079C517.876 204.111 518.022 204.172 518.152 204.26C518.281 204.347 518.392 204.458 518.478 204.587C518.564 204.717 518.622 204.861 518.651 205.012C518.68 205.164 518.677 205.319 518.644 205.469C518.612 205.62 518.549 205.763 518.459 205.889C518.37 206.016 518.256 206.124 518.124 206.208C517.992 206.292 517.844 206.349 517.689 206.377Z" fill="#E6E6E6"/>
<path d="M471.118 222.08L464.799 223.219C464.486 223.274 464.164 223.206 463.903 223.03C463.642 222.853 463.463 222.583 463.406 222.278C463.348 221.973 463.417 221.658 463.596 221.403C463.776 221.147 464.052 220.971 464.364 220.914L470.683 219.776C470.995 219.72 471.318 219.788 471.579 219.964C471.84 220.141 472.02 220.411 472.077 220.716C472.135 221.021 472.066 221.336 471.886 221.592C471.707 221.848 471.43 222.023 471.118 222.08Z" fill="#E6E6E6"/>
<path d="M466.54 251.486C469.31 250.987 471.141 248.39 470.63 245.685C470.119 242.98 467.46 241.191 464.69 241.69C461.921 242.189 460.09 244.786 460.601 247.492C461.111 250.197 463.771 251.985 466.54 251.486Z" fill="#D1D3D4"/>
<path d="M185.912 142.928H139.596C137.445 142.925 135.384 142.09 133.864 140.605C132.343 139.12 131.488 137.107 131.486 135.007V105.192C131.488 103.092 132.343 101.079 133.864 99.5935C135.384 98.1086 137.445 97.2732 139.596 97.2708H185.912C188.062 97.2732 190.124 98.1085 191.644 99.5935C193.165 101.078 194.02 103.092 194.022 105.192V135.007C194.02 137.107 193.165 139.12 191.644 140.605C190.124 142.09 188.062 142.925 185.912 142.928Z" fill="#E6E6E6"/>
<path d="M180.823 141.321H140.512C138.641 141.319 136.847 140.592 135.524 139.3C134.201 138.008 133.456 136.255 133.454 134.428V108.479C133.456 106.652 134.201 104.899 135.524 103.607C136.847 102.315 138.641 101.588 140.512 101.585H180.823C182.694 101.588 184.488 102.315 185.811 103.607C187.134 104.899 187.879 106.652 187.881 108.479V134.428C187.879 136.255 187.134 138.008 185.811 139.3C184.488 140.592 182.694 141.319 180.823 141.321Z" fill="white"/>
<path d="M192.436 169.789H133.006C132.638 169.788 132.286 169.645 132.027 169.391C131.768 169.137 131.622 168.793 131.622 168.435C131.622 168.076 131.768 167.732 132.027 167.478C132.286 167.224 132.638 167.081 133.006 167.08H192.436C192.803 167.081 193.155 167.224 193.415 167.478C193.674 167.732 193.82 168.076 193.82 168.435C193.82 168.793 193.674 169.137 193.415 169.391C193.155 169.645 192.803 169.788 192.436 169.789Z" fill="#E6E6E6"/>
<path d="M192.436 162.049H133.006C132.638 162.049 132.286 161.906 132.027 161.652C131.768 161.398 131.622 161.054 131.622 160.695C131.622 160.336 131.768 159.992 132.027 159.738C132.286 159.484 132.638 159.341 133.006 159.341H192.436C192.803 159.341 193.155 159.484 193.415 159.738C193.674 159.992 193.82 160.336 193.82 160.695C193.82 161.054 193.674 161.398 193.415 161.652C193.155 161.906 192.803 162.049 192.436 162.049Z" fill="#E6E6E6"/>
<path d="M192.436 177.529H133.006C132.638 177.529 132.285 177.386 132.025 177.132C131.765 176.878 131.619 176.533 131.619 176.174C131.619 175.815 131.765 175.47 132.025 175.216C132.285 174.962 132.638 174.82 133.006 174.82H192.436C192.804 174.82 193.157 174.962 193.417 175.216C193.677 175.47 193.823 175.815 193.823 176.174C193.823 176.533 193.677 176.878 193.417 177.132C193.157 177.386 192.804 177.529 192.436 177.529Z" fill="#E6E6E6"/>
<path d="M192.436 185.268H133.006C132.638 185.268 132.285 185.125 132.025 184.871C131.765 184.617 131.619 184.273 131.619 183.914C131.619 183.554 131.765 183.21 132.025 182.956C132.285 182.702 132.638 182.559 133.006 182.559H192.436C192.804 182.559 193.157 182.702 193.417 182.956C193.677 183.21 193.823 183.554 193.823 183.914C193.823 184.273 193.677 184.617 193.417 184.871C193.157 185.125 192.804 185.268 192.436 185.268Z" fill="#E6E6E6"/>
<path d="M192.436 193.008H133.006C132.638 193.008 132.285 192.865 132.025 192.611C131.765 192.357 131.619 192.012 131.619 191.653C131.619 191.294 131.765 190.949 132.025 190.695C132.285 190.441 132.638 190.299 133.006 190.299H192.436C192.804 190.299 193.157 190.441 193.417 190.695C193.677 190.949 193.823 191.294 193.823 191.653C193.823 192.012 193.677 192.357 193.417 192.611C193.157 192.865 192.804 193.008 192.436 193.008Z" fill="#E6E6E6"/>
<path d="M192.436 200.747H133.006C132.638 200.746 132.286 200.603 132.027 200.349C131.768 200.095 131.622 199.751 131.622 199.393C131.622 199.034 131.768 198.69 132.027 198.436C132.286 198.182 132.638 198.039 133.006 198.038H192.436C192.803 198.039 193.155 198.182 193.415 198.436C193.674 198.69 193.82 199.034 193.82 199.393C193.82 199.751 193.674 200.095 193.415 200.349C193.155 200.603 192.803 200.746 192.436 200.747Z" fill="#E6E6E6"/>
<path d="M159.75 182.997H161.223V238.437H54.647V236.998H159.75V182.997Z" fill="#3F3D56"/>
<path d="M9.57776 247.541H48.6255C51.1657 247.541 53.6019 246.555 55.398 244.801C57.1942 243.046 58.2033 240.667 58.2033 238.186C58.2033 235.705 57.1942 233.326 55.398 231.571C53.6019 229.817 51.1657 228.831 48.6255 228.831H9.57776C7.03758 228.831 4.60144 229.817 2.80526 231.571C1.00909 233.326 0 235.705 0 238.186C0 240.667 1.00909 243.046 2.80526 244.801C4.60144 246.555 7.03758 247.541 9.57776 247.541Z" fill="#5F6FEE"/>
<path d="M161.512 187.175C166.373 187.175 170.313 183.326 170.313 178.579C170.313 173.831 166.373 169.982 161.512 169.982C156.652 169.982 152.711 173.831 152.711 178.579C152.711 183.326 156.652 187.175 161.512 187.175Z" fill="#5F6FEE"/>
<path d="M207.003 180.967C219.925 183.65 216.638 184.173 229.559 186.856L240.686 189.165C242.078 189.454 242.459 187.327 241.067 187.038C228.145 184.356 231.432 183.833 218.51 181.15L207.384 178.841C205.992 178.552 205.611 180.678 207.003 180.967H207.003Z" fill="#F2F2F2"/>
<path d="M236.765 174.691L251.471 191.646C252.007 192.154 252.454 192.743 252.795 193.392C253.076 194.122 252.472 194.426 251.844 194.664C250.034 195.239 248.19 195.706 246.322 196.06L235.314 198.757C233.932 199.096 234.682 201.128 236.051 200.793L245.638 198.444L250.432 197.269C251.79 196.936 253.37 196.685 254.361 195.62C256.443 193.383 253.66 190.847 252.229 189.197L245.824 181.813L238.59 173.472C237.678 172.421 235.846 173.632 236.765 174.691V174.691Z" fill="#F2F2F2"/>
<path d="M283.393 248.602C294.697 248.602 303.86 239.652 303.86 228.612C303.86 217.571 294.697 208.621 283.393 208.621C272.089 208.621 262.926 217.571 262.926 228.612C262.926 239.652 272.089 248.602 283.393 248.602Z" fill="#E6E6E6"/>
<path d="M281.398 246.053C289.991 246.053 296.958 239.249 296.958 230.856C296.958 222.463 289.991 215.659 281.398 215.659C272.805 215.659 265.838 222.463 265.838 230.856C265.838 239.249 272.805 246.053 281.398 246.053Z" fill="white"/>
<path d="M278.606 241.26C278.253 241.26 277.904 241.18 277.588 241.026C277.272 240.871 276.997 240.647 276.785 240.371L271.201 233.099C271.022 232.865 270.891 232.6 270.817 232.317C270.743 232.034 270.726 231.74 270.768 231.451C270.81 231.162 270.91 230.883 271.062 230.632C271.215 230.381 271.416 230.161 271.655 229.986C271.894 229.81 272.166 229.683 272.456 229.61C272.745 229.538 273.047 229.521 273.343 229.563C273.639 229.604 273.924 229.701 274.181 229.85C274.438 229.999 274.663 230.195 274.843 230.429L274.844 230.431L278.497 235.188L287.879 221.442C288.045 221.199 288.258 220.99 288.507 220.827C288.755 220.664 289.034 220.55 289.327 220.493C289.621 220.435 289.923 220.435 290.216 220.492C290.51 220.548 290.789 220.661 291.038 220.823C291.287 220.985 291.501 221.194 291.668 221.436C291.834 221.679 291.95 221.952 292.008 222.238C292.067 222.525 292.067 222.82 292.008 223.107C291.95 223.394 291.834 223.666 291.668 223.909L280.501 240.27C280.299 240.566 280.027 240.81 279.708 240.982C279.39 241.155 279.034 241.25 278.67 241.26C278.648 241.26 278.627 241.26 278.606 241.26Z" fill="#E6E6E6"/>
<path d="M474.505 249.205C475.164 248.826 475.73 248.311 476.163 247.696C476.596 247.081 476.886 246.38 477.012 245.644C477.138 244.908 477.097 244.153 476.892 243.434C476.687 242.714 476.324 242.048 475.826 241.48L492.26 213.432L482.618 213.944L468.135 241.124C467.214 242.003 466.656 243.181 466.566 244.435C466.476 245.689 466.86 246.932 467.645 247.928C468.43 248.924 469.562 249.604 470.826 249.84C472.091 250.075 473.4 249.849 474.505 249.205H474.505Z" fill="#FFB8B8"/>
<path d="M455.995 150.89C455.995 150.89 473.4 145.425 477.876 158.541C482.353 171.658 497.401 207.181 497.401 207.181L481.233 239.425L473.959 231.774L481.734 209.367L459.352 176.576L455.995 150.89Z" fill="#3F3D56"/>
<path d="M481.788 236.132C481.264 235.266 480.599 234.49 479.82 233.832L474.267 228.612L473.958 229.284C473.388 230.16 473.015 231.143 472.862 232.17C472.709 233.196 472.78 234.243 473.07 235.24C473.36 236.238 473.862 237.165 474.545 237.96C475.227 238.755 476.073 239.4 477.029 239.853C477.844 240.271 478.764 240.457 479.682 240.388C480.14 240.349 480.581 240.205 480.971 239.968C481.36 239.73 481.686 239.406 481.923 239.022C482.139 238.565 482.24 238.064 482.216 237.561C482.193 237.058 482.046 236.568 481.788 236.132Z" fill="#E6E6E6"/>
<path d="M283.216 255.505H281.742V310.945H331.589V309.506H283.216V255.505Z" fill="#3F3D56"/>
<path d="M386.236 310.694C386.233 308.214 385.223 305.836 383.428 304.082C381.632 302.328 379.197 301.342 376.658 301.339H337.61C335.07 301.339 332.634 302.325 330.837 304.079C329.041 305.833 328.032 308.213 328.032 310.694C328.032 313.175 329.041 315.554 330.837 317.309C332.634 319.063 335.07 320.049 337.61 320.049H376.658C379.197 320.046 381.632 319.06 383.428 317.306C385.223 315.552 386.233 313.174 386.236 310.694Z" fill="#5F6FEE"/>
<path d="M281.453 259.683C286.313 259.683 290.254 255.834 290.254 251.087C290.254 246.339 286.313 242.49 281.453 242.49C276.592 242.49 272.652 246.339 272.652 251.087C272.652 255.834 276.592 259.683 281.453 259.683Z" fill="#5F6FEE"/>
</g>
<defs>
<clipPath id="clip0_4204_4493">
<rect width="554" height="400" fill="white"/>
</clipPath>
</defs>
</svg>
